<svg enable-background="new -13 14.8 44.2 44.2" height="44.2" viewBox="-13 14.8 44.2 44.2" width="44.2" xmlns="http://www.w3.org/2000/svg"><ellipse cx="9.1" cy="36.9" fill="#fff" rx="21.4" ry="21.1"/><path d="m9.1 59c-12.2 0-22.1-9.9-22.1-22.1s9.9-22.1 22.1-22.1 22.1 9.9 22.1 22.1-9.9 22.1-22.1 22.1zm0-42.7c-11.4 0-20.6 9.2-20.6 20.6s9.2 20.6 20.6 20.6 20.6-9.2 20.6-20.6-9.2-20.6-20.6-20.6z"/><path d="m11.7 44.6c-.2 0-.4-.1-.5-.2l-7.3-7.3c-.3-.3-.3-.8 0-1.1l7.3-7.3c.3-.3.8-.3 1.1 0s.3.8 0 1.1l-6.8 6.8 6.8 6.8c.3.3.3.8 0 1.1-.2.1-.4.1-.6.1z"/></svg>