<?xml version="1.0" encoding="utf-8"?>
<!-- Generator: Adobe Illustrator 19.1.0, SVG Export Plug-In . SVG Version: 6.00 Build 0)  -->
<svg version="1.1" id="Capa_1" xmlns="http://www.w3.org/2000/svg" xmlns:xlink="http://www.w3.org/1999/xlink" x="0px" y="0px"
	 width="44.2px" height="44.2px" viewBox="-283 374.8 44.2 44.2" style="enable-background:new -283 374.8 44.2 44.2;"
	 xml:space="preserve">
<g>
	<g>
		<path d="M-283,396.9c0-12.2,9.9-22.1,22.1-22.1c12.2,0,22.1,9.9,22.1,22.1c0,12.2-9.9,22.1-22.1,22.1
			C-273.1,419-283,409.1-283,396.9z M-240.3,396.9c0-11.4-9.2-20.6-20.6-20.6c-11.4,0-20.6,9.2-20.6,20.6c0,11.4,9.2,20.6,20.6,20.6
			C-249.5,417.5-240.3,408.2-240.3,396.9z"/>
		<path d="M-268.6,399.4c0-0.2,0.1-0.4,0.2-0.5l7.3-7.3c0.3-0.3,0.8-0.3,1.1,0l7.3,7.3c0.3,0.3,0.3,0.8,0,1.1s-0.8,0.3-1.1,0
			l-6.8-6.8l-6.8,6.8c-0.3,0.3-0.8,0.3-1.1,0C-268.6,399.8-268.6,399.6-268.6,399.4z"/>
	</g>
</g>
</svg>
