<?xml version="1.0" encoding="utf-8"?>
<!-- Generator: Adobe Illustrator 19.1.0, SVG Export Plug-In . SVG Version: 6.00 Build 0)  -->
<svg version="1.1" id="Capa_1" xmlns="http://www.w3.org/2000/svg" xmlns:xlink="http://www.w3.org/1999/xlink" x="0px" y="0px"
	 width="44.2px" height="44.2px" viewBox="-13 14.8 44.2 44.2" style="enable-background:new -13 14.8 44.2 44.2;"
	 xml:space="preserve">
<style type="text/css">
	.st0{fill:#FFFFFF;}
</style>
<ellipse class="st0" cx="9.1" cy="36.9" rx="21.4" ry="21.1"/>
<g>
	<g>
		<path d="M9.1,59C-3.1,59-13,49.1-13,36.9s9.9-22.1,22.1-22.1s22.1,9.9,22.1,22.1S21.3,59,9.1,59z M9.1,16.3
			c-11.4,0-20.6,9.2-20.6,20.6c0,11.4,9.2,20.6,20.6,20.6s20.6-9.2,20.6-20.6C29.7,25.5,20.5,16.3,9.1,16.3z"/>
		<path d="M11.7,44.6c-0.2,0-0.4-0.1-0.5-0.2l-7.3-7.3c-0.3-0.3-0.3-0.8,0-1.1l7.3-7.3c0.3-0.3,0.8-0.3,1.1,0s0.3,0.8,0,1.1
			l-6.8,6.8l6.8,6.8c0.3,0.3,0.3,0.8,0,1.1C12.1,44.6,11.9,44.6,11.7,44.6z"/>
	</g>
</g>
</svg>
