<svg enable-background="new -13 14.8 44.2 44.2" height="44.2" viewBox="-13 14.8 44.2 44.2" width="44.2" xmlns="http://www.w3.org/2000/svg"><ellipse cx="9.1" cy="36.9" fill="#fff" rx="21.4" ry="21.1"/><path d="m-13 36.9c0-12.2 9.9-22.1 22.1-22.1s22.1 9.9 22.1 22.1-9.9 22.1-22.1 22.1-22.1-9.9-22.1-22.1zm42.7 0c0-11.4-9.2-20.6-20.6-20.6s-20.6 9.2-20.6 20.6 9.2 20.6 20.6 20.6 20.6-9.3 20.6-20.6z"/><path d="m1.4 39.4c0-.2.1-.4.2-.5l7.3-7.3c.3-.3.8-.3 1.1 0l7.3 7.3c.3.3.3.8 0 1.1s-.8.3-1.1 0l-6.8-6.8-6.8 6.8c-.3.3-.8.3-1.1 0-.1-.2-.1-.4-.1-.6z"/></svg>