<?xml version="1.0" encoding="utf-8"?>
<!-- Generator: Adobe Illustrator 19.1.0, SVG Export Plug-In . SVG Version: 6.00 Build 0)  -->
<svg version="1.1" id="Capa_1" xmlns="http://www.w3.org/2000/svg" xmlns:xlink="http://www.w3.org/1999/xlink" x="0px" y="0px"
	 width="44.2px" height="44.2px" viewBox="-13 14.8 44.2 44.2" style="enable-background:new -13 14.8 44.2 44.2;"
	 xml:space="preserve">
<style type="text/css">
	.st0{fill:#FFFFFF;}
</style>
<ellipse class="st0" cx="9.1" cy="36.9" rx="21.4" ry="21.1"/>
<g>
	<g>
		<path d="M-13,36.9c0-12.2,9.9-22.1,22.1-22.1s22.1,9.9,22.1,22.1S21.3,59,9.1,59S-13,49.1-13,36.9z M29.7,36.9
			c0-11.4-9.2-20.6-20.6-20.6c-11.4,0-20.6,9.2-20.6,20.6s9.2,20.6,20.6,20.6C20.5,57.5,29.7,48.2,29.7,36.9z"/>
		<path d="M1.4,39.4c0-0.2,0.1-0.4,0.2-0.5l7.3-7.3c0.3-0.3,0.8-0.3,1.1,0l7.3,7.3c0.3,0.3,0.3,0.8,0,1.1c-0.3,0.3-0.8,0.3-1.1,0
			l-6.8-6.8L2.6,40c-0.3,0.3-0.8,0.3-1.1,0C1.4,39.8,1.4,39.6,1.4,39.4z"/>
	</g>
</g>
</svg>
