<?xml version="1.0" encoding="utf-8"?>
<!-- Generator: Adobe Illustrator 19.1.0, SVG Export Plug-In . SVG Version: 6.00 Build 0)  -->
<svg version="1.1" id="Layer_1" xmlns="http://www.w3.org/2000/svg" xmlns:xlink="http://www.w3.org/1999/xlink" x="0px" y="0px"
	 width="39.8px" height="40px" viewBox="0 0 39.8 40" style="enable-background:new 0 0 39.8 40;" xml:space="preserve">
<style type="text/css">
	.st0{fill:#F68D22;}
	.st1{fill:#FFFFFF;}
</style>
<g>
	<path class="st0" d="M38.3,35.6c0,1.2-1,2.1-2.1,2.1H4.3c-1.2,0-2.1-1-2.1-2.1V3.7c0-1.2,1-2.1,2.1-2.1h31.9c1.2,0,2.1,1,2.1,2.1
		V35.6z"/>
	<g>
		<g>
			<path d="M18.9,19.4c0.4-0.2,0.7-0.4,0.9-0.7c0.4-0.4,0.5-1,0.5-1.7c0-0.7-0.2-1.3-0.5-1.8c-0.6-0.8-1.6-1.2-3-1.2h-5.7v11.7h5.3
				c0.6,0,1.1-0.1,1.7-0.2c0.5-0.1,0.9-0.3,1.3-0.6c0.3-0.2,0.6-0.6,0.8-0.9c0.3-0.6,0.5-1.2,0.5-1.9c0-0.7-0.2-1.2-0.5-1.7
				C20,20,19.5,19.7,18.9,19.4z M13.5,16H16c0.6,0,1,0.1,1.4,0.2c0.4,0.2,0.6,0.5,0.6,1.1c0,0.5-0.2,0.8-0.5,1
				c-0.3,0.2-0.7,0.3-1.2,0.3h-2.9V16z M17.5,23.5c-0.3,0.1-0.7,0.2-1.2,0.2h-2.8v-3.1h2.9c0.5,0,0.9,0.1,1.2,0.2
				c0.5,0.2,0.7,0.6,0.7,1.3C18.3,22.7,18,23.2,17.5,23.5z"/>
			<path d="M30,20.3c-0.1-0.7-0.3-1.3-0.7-1.8c-0.4-0.6-0.9-1-1.5-1.3c-0.6-0.3-1.3-0.4-2-0.4c-1.3,0-2.3,0.4-3.1,1.2
				c-0.8,0.8-1.2,2-1.2,3.5c0,1.6,0.4,2.8,1.3,3.5c0.9,0.7,1.9,1.1,3.1,1.1c1.4,0,2.5-0.4,3.3-1.3c0.5-0.5,0.8-1.1,0.8-1.6h-2.3
				c-0.1,0.3-0.3,0.5-0.5,0.6c-0.3,0.3-0.7,0.4-1.3,0.4c-0.5,0-0.9-0.1-1.3-0.3c-0.6-0.3-0.9-1-0.9-1.8h6.3
				C30.1,21.3,30.1,20.7,30,20.3z M23.8,20.5c0.1-0.6,0.3-1,0.6-1.3c0.3-0.3,0.8-0.5,1.4-0.5c0.5,0,1,0.2,1.3,0.5
				c0.4,0.3,0.6,0.8,0.6,1.4H23.8z"/>
			<rect x="23.2" y="14.5" width="5" height="1.5"/>
		</g>
	</g>
	<g>
		<g>
			<path class="st1" d="M18.6,19.1c0.4-0.2,0.7-0.4,0.9-0.7c0.4-0.4,0.5-1,0.5-1.7c0-0.7-0.2-1.3-0.5-1.8c-0.6-0.8-1.6-1.2-3-1.3
				h-5.7v11.7H16c0.6,0,1.1-0.1,1.7-0.2c0.5-0.1,0.9-0.3,1.3-0.6c0.3-0.2,0.6-0.6,0.8-0.9c0.3-0.6,0.5-1.2,0.5-1.9
				c0-0.7-0.2-1.2-0.5-1.7C19.6,19.6,19.2,19.3,18.6,19.1z M13.1,15.7h2.6c0.6,0,1,0.1,1.4,0.2c0.4,0.2,0.6,0.5,0.6,1.1
				c0,0.5-0.2,0.8-0.5,1c-0.3,0.2-0.7,0.3-1.2,0.3h-2.9V15.7z M17.1,23.1c-0.3,0.1-0.7,0.2-1.2,0.2h-2.8v-3.1H16
				c0.5,0,0.9,0.1,1.2,0.2c0.5,0.2,0.7,0.6,0.7,1.3C17.9,22.4,17.6,22.9,17.1,23.1z"/>
			<path class="st1" d="M29.7,19.9c-0.1-0.7-0.3-1.3-0.7-1.8c-0.4-0.6-0.9-1-1.5-1.3c-0.6-0.3-1.3-0.4-2-0.4c-1.3,0-2.3,0.4-3.1,1.2
				c-0.8,0.8-1.2,2-1.2,3.5c0,1.6,0.4,2.8,1.3,3.5c0.9,0.7,1.9,1.1,3.1,1.1c1.4,0,2.5-0.4,3.3-1.3c0.5-0.5,0.8-1.1,0.8-1.6h-2.3
				c-0.1,0.3-0.3,0.5-0.5,0.6c-0.3,0.3-0.7,0.4-1.3,0.4c-0.5,0-0.9-0.1-1.3-0.3c-0.6-0.3-0.9-1-0.9-1.8h6.3
				C29.7,20.9,29.7,20.3,29.7,19.9z M23.5,20.2c0.1-0.6,0.3-1,0.6-1.3c0.3-0.3,0.8-0.5,1.4-0.5c0.5,0,1,0.2,1.3,0.5
				c0.4,0.3,0.6,0.8,0.6,1.4H23.5z"/>
			<rect x="22.9" y="14.2" class="st1" width="5" height="1.5"/>
		</g>
	</g>
</g>
</svg>
