<svg id="_16" data-name="16" xmlns="http://www.w3.org/2000/svg" viewBox="0 0 39 39"><defs><style>.cls-1{fill:#4d4d4f;}.cls-2{fill:#ffeb44;fill-rule:evenodd;}</style></defs><title>Artboard 5 copy 2portfolio-icons</title><rect class="cls-1" width="39" height="39"/><path class="cls-2" d="M8.52,21H13c1,0,2.75.44,2.75,2.36,0,1-.8,2.19-1.8,2.19H8.52Zm14.57-9.1h8.16v2.71H23.09ZM30.17,21h-6a3,3,0,0,1,6,0ZM24,22.85H34V22.4a6.63,6.63,0,0,0-6.81-6.83,6.62,6.62,0,0,0-6.83,6.83,6.6,6.6,0,0,0,6.83,6.83c4.09,0,6.06-2.35,6.67-5.48H30.17c-.33,1.61-1.28,2.75-3,2.75S24.14,24.89,24,22.85Zm-4.52.9a4.59,4.59,0,0,0-3.1-4.28,4.62,4.62,0,0,0,2.16-3.9A4.55,4.55,0,0,0,14,11H4.87v18.2H14a5.49,5.49,0,0,0,5.47-5.48ZM13,18.34H8.52V14.65H13a1.85,1.85,0,0,1,0,3.69Z"/></svg>