<svg id="_16" data-name="16" xmlns="http://www.w3.org/2000/svg" viewBox="0 0 39 39"><defs><style>.cls-1{fill:#4d4d4f;}.cls-2{fill:#ffeb44;fill-rule:evenodd;}</style></defs><title>Artboard 5 copy 3portfolio-icons</title><rect class="cls-1" width="39" height="39"/><path class="cls-2" d="M31,20a12.33,12.33,0,0,0-.21-1.84,11.39,11.39,0,0,0-.64-2.08,12.06,12.06,0,0,0-1-1.9,13.2,13.2,0,0,0-1.36-1.63,11.14,11.14,0,0,0-3.53-2.38,11,11,0,0,0-2.07-.64,12.09,12.09,0,0,0-2.25-.23,12,12,0,0,0-2.23.23,10.87,10.87,0,0,0-2.08.64,10.85,10.85,0,0,0-3.53,2.38,10.92,10.92,0,0,0-1.35,1.63,8.92,8.92,0,0,0-1,1.9A9,9,0,0,0,9,18.17a8.41,8.41,0,0,0-.21,1.71,3.08,3.08,0,0,0,0,.54A10.41,10.41,0,0,0,9,22.64a9.07,9.07,0,0,0,.66,2.09,8.85,8.85,0,0,0,1,1.89,11.52,11.52,0,0,0,1.35,1.64,10.51,10.51,0,0,0,1.64,1.35,11.85,11.85,0,0,0,1.89,1,10.93,10.93,0,0,0,2.08.66,11.15,11.15,0,0,0,2.23.2,11.28,11.28,0,0,0,2.25-.2,11.07,11.07,0,0,0,2.07-.66,11.33,11.33,0,0,0,1.88-1,10.14,10.14,0,0,0,1.65-1.35,14.08,14.08,0,0,0,1.36-1.64,12,12,0,0,0,1-1.89,11.49,11.49,0,0,0,.64-2.09A12,12,0,0,0,31,20.42,2.62,2.62,0,0,0,31,20ZM19.89,10.93a9.49,9.49,0,0,1,6.26,2.36,10.32,10.32,0,0,1-4.94,3.43,48,48,0,0,0-3.54-5.52,9.57,9.57,0,0,1,2.22-.27Zm-2.26.27h0a0,0,0,0,1,0,0s0,0,0,0Zm-1.79.64a55.32,55.32,0,0,1,3.53,5.47,34.74,34.74,0,0,1-8.74,1.14,9.44,9.44,0,0,1,5.21-6.61Zm-3,14.9a9.35,9.35,0,0,1-2.43-6.32,2.72,2.72,0,0,1,0-.3,35.17,35.17,0,0,0,9.73-1.36c.27.53.52,1.07.77,1.62a1.19,1.19,0,0,0-.38.11,14.81,14.81,0,0,0-7.7,6.24Zm7,3.15a9.39,9.39,0,0,1-5.82-2h0a1.94,1.94,0,0,1-.21-.17,1.93,1.93,0,0,0,.21.17s1.85-4,7.44-5.92h.07a38.4,38.4,0,0,1,2,7.19,9.66,9.66,0,0,1-3.7.75Zm5.3-1.62a41.39,41.39,0,0,0-1.84-6.76,14,14,0,0,1,5.92.4,9.5,9.5,0,0,1-4.08,6.36ZM22.78,20a4.61,4.61,0,0,1-.2-.49c-.16-.35-.31-.66-.45-1l-.2-.38a12.36,12.36,0,0,0,5.3-3.75,9.47,9.47,0,0,1,2.11,5.18c0,.24,0,.48,0,.75a21.62,21.62,0,0,0-6.6-.31Z"/></svg>