<svg id="_16" data-name="16" xmlns="http://www.w3.org/2000/svg" viewBox="0 0 39 39"><defs><style>.cls-1{fill:#4d4d4f;}.cls-2{fill:#ffeb44;}</style></defs><title>Artboard 5 copy 4portfolio-icons</title><rect class="cls-1" width="39" height="39"/><path class="cls-2" d="M32,20.48c-.05.38-.09.77-.14,1.16a11.89,11.89,0,0,1-1.72,4.74,12.6,12.6,0,0,1-4,4,12.36,12.36,0,0,1-2.7,1.28.62.62,0,0,1-.9-.65c0-1.09,0-2.18,0-3.28a3.51,3.51,0,0,0-.44-1.9c-.1-.17-.24-.32-.36-.49.49-.09,1-.16,1.45-.28a5.25,5.25,0,0,0,3.2-2,5.88,5.88,0,0,0,1-2.75,7,7,0,0,0,0-2.29,4.58,4.58,0,0,0-1-2,.42.42,0,0,1-.09-.45,4.28,4.28,0,0,0-.18-3,.27.27,0,0,0-.18-.12,2.16,2.16,0,0,0-1.25.25c-.64.29-1.25.64-1.87,1a.58.58,0,0,1-.36.06,11.83,11.83,0,0,0-5.88,0,.51.51,0,0,1-.38-.08,9.27,9.27,0,0,0-2.55-1.14l-.05,0c-.57-.12-.68-.05-.84.51a4.27,4.27,0,0,0,0,2.69.28.28,0,0,1-.05.25A5.11,5.11,0,0,0,11.54,20a7.37,7.37,0,0,0,.69,2.61,4.5,4.5,0,0,0,2.67,2.23,23.15,23.15,0,0,0,2.25.58s0,0,0,0a2.64,2.64,0,0,0-.7,1.45.26.26,0,0,1-.12.19,2.78,2.78,0,0,1-2.6,0,2.65,2.65,0,0,1-.91-1,2.66,2.66,0,0,0-1.56-1.27,2.3,2.3,0,0,0-.79,0c-.17,0-.23.14-.11.29a1.34,1.34,0,0,0,.37.38,3.39,3.39,0,0,1,1.33,1.64,3.08,3.08,0,0,0,.66,1.1,2.86,2.86,0,0,0,1.87.69c.58,0,1.16,0,1.78,0,0,0,0,0,0,.11,0,.66,0,1.32,0,2s-.38.91-1,.7A12.4,12.4,0,0,1,8.33,25.5a12.24,12.24,0,0,1-1.28-7.11,12.08,12.08,0,0,1,3-6.86,11.9,11.9,0,0,1,6.73-4,12.24,12.24,0,0,1,10.57,2.5,12.2,12.2,0,0,1,4.41,7.35c.09.44.12.89.18,1.33A2.38,2.38,0,0,0,32,19Z"/></svg>