<?xml version="1.0" encoding="utf-8"?>
<!-- Generator: Adobe Illustrator 19.1.0, SVG Export Plug-In . SVG Version: 6.00 Build 0)  -->
<svg version="1.1" id="Layer_1" xmlns="http://www.w3.org/2000/svg" xmlns:xlink="http://www.w3.org/1999/xlink" x="0px" y="0px"
	 width="39.8px" height="40px" viewBox="0 0 39.8 40" style="enable-background:new 0 0 39.8 40;" xml:space="preserve">
<style type="text/css">
	.st0{display:none;}
	.st1{display:inline;fill:#F68D22;}
	.st2{display:inline;}
	.st3{fill:#FFFFFF;}
	.st4{display:inline;fill:#FFFFFF;}
	.st5{fill:#F68D22;}
</style>
<g class="st0">
	<path class="st1" d="M38.3,35.6c0,1.2-1,2.1-2.1,2.1H4.3c-1.2,0-2.1-1-2.1-2.1V3.7c0-1.2,1-2.1,2.1-2.1h31.9c1.2,0,2.1,1,2.1,2.1
		V35.6z"/>
	<g class="st2">
		<g>
			<path d="M18.9,19.4c0.4-0.2,0.7-0.4,0.9-0.7c0.4-0.4,0.5-1,0.5-1.7c0-0.7-0.2-1.3-0.5-1.8c-0.6-0.8-1.6-1.2-3-1.2h-5.7v11.7h5.3
				c0.6,0,1.1-0.1,1.7-0.2c0.5-0.1,0.9-0.3,1.3-0.6c0.3-0.2,0.6-0.6,0.8-0.9c0.3-0.6,0.5-1.2,0.5-1.9c0-0.7-0.2-1.2-0.5-1.7
				C20,20,19.5,19.7,18.9,19.4z M13.5,16H16c0.6,0,1,0.1,1.4,0.2c0.4,0.2,0.6,0.5,0.6,1.1c0,0.5-0.2,0.8-0.5,1
				c-0.3,0.2-0.7,0.3-1.2,0.3h-2.9V16z M17.5,23.5c-0.3,0.1-0.7,0.2-1.2,0.2h-2.8v-3.1h2.9c0.5,0,0.9,0.1,1.2,0.2
				c0.5,0.2,0.7,0.6,0.7,1.3C18.3,22.7,18,23.2,17.5,23.5z"/>
			<path d="M30,20.3c-0.1-0.7-0.3-1.3-0.7-1.8c-0.4-0.6-0.9-1-1.5-1.3c-0.6-0.3-1.3-0.4-2-0.4c-1.3,0-2.3,0.4-3.1,1.2
				c-0.8,0.8-1.2,2-1.2,3.5c0,1.6,0.4,2.8,1.3,3.5c0.9,0.7,1.9,1.1,3.1,1.1c1.4,0,2.5-0.4,3.3-1.3c0.5-0.5,0.8-1.1,0.8-1.6h-2.3
				c-0.1,0.3-0.3,0.5-0.5,0.6c-0.3,0.3-0.7,0.4-1.3,0.4c-0.5,0-0.9-0.1-1.3-0.3c-0.6-0.3-0.9-1-0.9-1.8h6.3
				C30.1,21.3,30.1,20.7,30,20.3z M23.8,20.5c0.1-0.6,0.3-1,0.6-1.3c0.3-0.3,0.8-0.5,1.4-0.5c0.5,0,1,0.2,1.3,0.5
				c0.4,0.3,0.6,0.8,0.6,1.4H23.8z"/>
			<rect x="23.2" y="14.5" width="5" height="1.5"/>
		</g>
	</g>
	<g class="st2">
		<g>
			<path class="st3" d="M18.6,19.1c0.4-0.2,0.7-0.4,0.9-0.7c0.4-0.4,0.5-1,0.5-1.7c0-0.7-0.2-1.3-0.5-1.8c-0.6-0.8-1.6-1.2-3-1.3
				h-5.7v11.7H16c0.6,0,1.1-0.1,1.7-0.2c0.5-0.1,0.9-0.3,1.3-0.6c0.3-0.2,0.6-0.6,0.8-0.9c0.3-0.6,0.5-1.2,0.5-1.9
				c0-0.7-0.2-1.2-0.5-1.7C19.6,19.6,19.2,19.3,18.6,19.1z M13.1,15.7h2.6c0.6,0,1,0.1,1.4,0.2c0.4,0.2,0.6,0.5,0.6,1.1
				c0,0.5-0.2,0.8-0.5,1c-0.3,0.2-0.7,0.3-1.2,0.3h-2.9V15.7z M17.1,23.1c-0.3,0.1-0.7,0.2-1.2,0.2h-2.8v-3.1H16
				c0.5,0,0.9,0.1,1.2,0.2c0.5,0.2,0.7,0.6,0.7,1.3C17.9,22.4,17.6,22.9,17.1,23.1z"/>
			<path class="st3" d="M29.7,19.9c-0.1-0.7-0.3-1.3-0.7-1.8c-0.4-0.6-0.9-1-1.5-1.3c-0.6-0.3-1.3-0.4-2-0.4c-1.3,0-2.3,0.4-3.1,1.2
				c-0.8,0.8-1.2,2-1.2,3.5c0,1.6,0.4,2.8,1.3,3.5c0.9,0.7,1.9,1.1,3.1,1.1c1.4,0,2.5-0.4,3.3-1.3c0.5-0.5,0.8-1.1,0.8-1.6h-2.3
				c-0.1,0.3-0.3,0.5-0.5,0.6c-0.3,0.3-0.7,0.4-1.3,0.4c-0.5,0-0.9-0.1-1.3-0.3c-0.6-0.3-0.9-1-0.9-1.8h6.3
				C29.7,20.9,29.7,20.3,29.7,19.9z M23.5,20.2c0.1-0.6,0.3-1,0.6-1.3c0.3-0.3,0.8-0.5,1.4-0.5c0.5,0,1,0.2,1.3,0.5
				c0.4,0.3,0.6,0.8,0.6,1.4H23.5z"/>
			<rect x="22.9" y="14.2" class="st3" width="5" height="1.5"/>
		</g>
	</g>
</g>
<g class="st0">
	<path class="st1" d="M38.3,35.6c0,1.2-1,2.1-2.1,2.1H4.3c-1.2,0-2.1-1-2.1-2.1V3.7c0-1.2,1-2.1,2.1-2.1h31.9c1.2,0,2.1,1,2.1,2.1
		V35.6z"/>
	<g class="st2">
		<g>
			<g>
				<g>
					<path d="M26.4,11.1H14.8c-1.8,0-3.3,1.5-3.3,3.2v11.4c0,1.8,1.5,3.2,3.3,3.2h11.7c1.8,0,3.3-1.5,3.3-3.2V14.3
						C29.8,12.6,28.3,11.1,26.4,11.1z M24.3,13.6c0-0.4,0.3-0.7,0.7-0.7c0.7,0,1.5,0,2.2,0c0.4,0,0.7,0.2,0.7,0.6c0,0,0,0.1,0,0.1
						c0,0.7,0,1.4,0,2.1c0,0.4-0.2,0.6-0.6,0.7c0,0-0.1,0-0.1,0c-0.4,0-0.7,0-1.1,0c-0.4,0-0.7,0-1.1,0c-0.3,0-0.7-0.2-0.7-0.6
						c0,0,0-0.1,0-0.1C24.3,15,24.3,14.3,24.3,13.6z M20.6,16.4c2,0,3.7,1.6,3.7,3.5c0,1.9-1.6,3.5-3.7,3.5c-2,0-3.7-1.6-3.7-3.5
						C16.9,18,18.5,16.4,20.6,16.4z M28,18.6c0,2.1,0,4.1,0,6.2c0,0.5,0,0.9,0,1.4c0,0.3-0.2,0.6-0.6,0.7c-0.1,0-0.1,0-0.2,0
						c-2.1,0-4.2,0-6.3,0c-2.3,0-4.5,0-6.8,0c-0.1,0-0.2,0-0.3,0c-0.3-0.1-0.5-0.3-0.5-0.6c0,0,0-0.1,0-0.1c0-2.5,0-5,0-7.5
						c0,0,0-0.1,0-0.1c0.6,0,1.1,0,1.7,0c-0.4,1.4-0.2,2.8,0.6,4.1c0.5,0.9,1.3,1.6,2.3,2.2c1,0.5,2,0.7,3.1,0.7
						c1.8-0.1,3.3-0.9,4.5-2.3c1.1-1.4,1.4-3,1-4.7C26.9,18.5,27.4,18.5,28,18.6C28,18.5,28,18.6,28,18.6z"/>
				</g>
			</g>
		</g>
	</g>
	<g class="st2">
		<g>
			<g>
				<g>
					<path class="st3" d="M26.1,10.7H14.4c-1.8,0-3.3,1.5-3.3,3.2v11.4c0,1.8,1.5,3.2,3.3,3.2h11.7c1.8,0,3.3-1.5,3.3-3.2V14
						C29.4,12.2,27.9,10.7,26.1,10.7z M23.9,13.2c0-0.4,0.3-0.7,0.7-0.7c0.7,0,1.5,0,2.2,0c0.4,0,0.7,0.2,0.7,0.6c0,0,0,0.1,0,0.1
						c0,0.7,0,1.4,0,2.1c0,0.4-0.2,0.6-0.6,0.7c0,0-0.1,0-0.1,0c-0.4,0-0.7,0-1.1,0c-0.4,0-0.7,0-1.1,0c-0.3,0-0.7-0.2-0.7-0.6
						c0,0,0-0.1,0-0.1C23.9,14.6,23.9,13.9,23.9,13.2z M20.2,16c2,0,3.7,1.6,3.7,3.5c0,1.9-1.6,3.5-3.7,3.5c-2,0-3.7-1.6-3.7-3.5
						C16.6,17.6,18.2,16,20.2,16z M27.6,18.2c0,2.1,0,4.1,0,6.2c0,0.5,0,0.9,0,1.4c0,0.3-0.2,0.6-0.6,0.7c-0.1,0-0.1,0-0.2,0
						c-2.1,0-4.2,0-6.3,0c-2.3,0-4.5,0-6.8,0c-0.1,0-0.2,0-0.3,0c-0.3-0.1-0.5-0.3-0.5-0.6c0,0,0-0.1,0-0.1c0-2.5,0-5,0-7.5
						c0,0,0-0.1,0-0.1c0.6,0,1.1,0,1.7,0c-0.4,1.4-0.2,2.8,0.6,4.1c0.5,0.9,1.3,1.6,2.3,2.2c1,0.5,2,0.7,3.1,0.7
						c1.8-0.1,3.3-0.9,4.5-2.3c1.1-1.4,1.4-3,1-4.7C26.5,18.1,27,18.1,27.6,18.2C27.6,18.2,27.6,18.2,27.6,18.2z"/>
				</g>
			</g>
		</g>
	</g>
</g>
<g class="st0">
	<path class="st1" d="M37.5,35.4c0,1.2-0.9,2.1-2.1,2.1H3.9c-1.2,0-2.1-0.9-2.1-2.1V3.9c0-1.2,0.9-2.1,2.1-2.1h31.5
		c1.2,0,2.1,0.9,2.1,2.1V35.4z"/>
	<path class="st2" d="M15.4,27.6h-3.2V17.3h3.2V27.6z M13.7,16L13.7,16c-1.2,0-1.9-0.8-1.9-1.8c0-1,0.8-1.8,2-1.8
		c1.2,0,1.9,0.8,1.9,1.8C15.7,15.2,14.9,16,13.7,16z M28.3,27.6h-3.7v-5.3c0-1.4-0.6-2.3-1.8-2.3c-1,0-1.5,0.6-1.7,1.3
		C21,21.4,21,21.7,21,22v5.6h-3.6c0,0,0-9.5,0-10.3H21v1.6c0.2-0.7,1.4-1.7,3.2-1.7c2.3,0,4.1,1.5,4.1,4.7V27.6z"/>
	<path class="st4" d="M15,27.3h-3.2V16.9H15V27.3z M13.3,15.7L13.3,15.7c-1.2,0-1.9-0.8-1.9-1.8c0-1,0.8-1.8,2-1.8
		c1.2,0,1.9,0.8,1.9,1.8C15.3,14.9,14.6,15.7,13.3,15.7z M27.9,27.3h-3.7v-5.3c0-1.4-0.6-2.4-1.8-2.4c-1,0-1.5,0.6-1.7,1.3
		c-0.1,0.2-0.1,0.5-0.1,0.8v5.6H17c0,0,0-9.5,0-10.3h3.6v1.6c0.2-0.7,1.4-1.7,3.2-1.7c2.3,0,4.1,1.5,4.1,4.7V27.3z"/>
</g>
<g>
	<g>
		<path class="st5" d="M37.7,35.1c0,1.2-0.9,2.1-2.1,2.1H4.1C3,37.2,2,36.2,2,35.1V3.6C2,2.4,3,1.5,4.1,1.5h31.5
			c1.2,0,2.1,0.9,2.1,2.1V35.1z"/>
	</g>
	<g>
		<path class="st3" d="M17.1,22.9c-0.5-0.1-1-0.2-1.5-0.3c-1.7-0.4-3.2-1.2-4.2-2.8c-0.1-0.1-0.3-0.2-0.4-0.2
			c-1.2,0.1-2.5,0.2-3.7,0.3c-0.1,0-0.2,0-0.4-0.1c1.3-0.5,2.7-0.5,4.1-0.5c0-0.3-0.2-0.4-0.4-0.4c-1.2,0-2.4,0-3.6,0
			c-0.1,0-0.3,0-0.4-0.1c1.4-0.3,2.8-0.2,4.2-0.2c-0.1-0.7-0.3-1.4-0.3-2.2c-0.1-1.7,0.3-3.3,1.4-4.6c0.1-0.1,0.2-0.4,0.1-0.5
			c-0.2-1.1-0.2-2.2,0.1-3.2c0.1-0.4,0.2-0.4,0.6-0.4C13.9,7.9,14.9,8.3,16,9c0.2,0.1,0.5,0.2,0.7,0.1c2-0.4,4-0.3,6,0
			c0.2,0,0.5,0,0.7-0.1C24.5,8.3,26,7.7,27,7.8c0.4,1.1,0.5,2.2,0.4,3.3c0,0.2,0,0.4,0.1,0.5c1.5,2.1,1.9,4.4,1.3,6.9
			c0,0.1,0,0.1-0.1,0.2c1.5,0,2.9-0.1,4.3,0.1c0,0.1,0,0.1,0,0.2c-0.1,0-0.3,0-0.4,0c-1.2,0-2.4,0-3.7,0c-0.2,0-0.3,0.1-0.4,0.3
			c1.4,0.1,2.8,0.1,4.2,0.5c0,0,0,0.1,0,0.1c-0.1,0-0.2,0-0.3,0c-1.2-0.1-2.5-0.2-3.7-0.3c-0.1,0-0.3,0.1-0.4,0.2
			c-1,1.8-2.7,2.6-4.6,3.1c-0.3,0.1-0.5,0.1-0.9,0.2c0.9,0.9,0.9,1.9,0.9,3c0,1,0,2.1,0,3.1c0,0.6,0,1.2,0.6,1.7
			c-0.7,0-1.2-0.1-1.7-0.3c-0.3-0.2-0.5-0.5-0.5-0.9c0-1.2,0-2.4,0-3.7c0-0.2,0-0.5-0.4-0.6c0,0.2,0,0.3,0,0.5c0,1.3,0,2.7,0,4
			c0,0.4,0.1,0.8,0.2,1.1c-0.9,0.2-1.8-0.4-1.8-1.4c0-1.2,0-2.4,0-3.7c0-0.2-0.1-0.5-0.2-0.5c-0.4,0.1-0.2,0.4-0.2,0.6
			c0,1.2,0,2.4,0,3.6c0,1.1-0.4,1.5-1.5,1.5c-0.2,0-0.3,0-0.6,0c0.5-0.6,0.4-1.2,0.4-1.8c0-1.1,0-2.2,0-3.3c0-0.2,0-0.3,0-0.5
			c-0.4,0.1-0.4,0.3-0.4,0.5c0,1.1,0,2.3,0,3.4c0,1.1-0.7,1.7-2,1.6c0.5-0.4,0.4-1,0.4-1.5c0-0.8,0-1.6,0-2.5c-0.5,0-0.9,0-1.4,0
			c-1.3,0-2.2-0.5-2.9-1.6c-0.2-0.4-0.4-0.7-0.6-1.1c-0.4-0.6-0.8-1.1-1.3-1.7c0.4,0.1,0.8,0.2,1.1,0.4c0.4,0.2,0.7,0.5,1,0.8
			c1.1,1.2,2.4,1.5,3.9,1.3C16.4,24.1,16.8,23.5,17.1,22.9z"/>
	</g>
</g>
</svg>
