<?xml version="1.0" encoding="utf-8"?>
<!-- Generator: Adobe Illustrator 19.1.0, SVG Export Plug-In . SVG Version: 6.00 Build 0)  -->
<svg version="1.1" id="Layer_1" xmlns="http://www.w3.org/2000/svg" xmlns:xlink="http://www.w3.org/1999/xlink" x="0px" y="0px"
	 width="38.7px" height="38.7px" viewBox="0 0 38.7 38.7" style="enable-background:new 0 0 38.7 38.7;" xml:space="preserve">
<style type="text/css">
	.st0{fill:#F78D23;}
	.st1{fill:#FFFFFF;}
</style>
<g>
	<path class="st0" d="M37.9,35.2c0,1.2-1,2.2-2.2,2.2H3.1c-1.2,0-2.2-1-2.2-2.2V2.5c0-1.2,1-2.2,2.2-2.2h32.7c1.2,0,2.2,1,2.2,2.2
		V35.2z"/>
</g>
<g>
	<path class="st1" d="M23.7,10.1c0.3,0.8,0.4,1.6,0.3,2.5c0,0.1,0,0.2,0.1,0.3c1.2,1.6,1.4,3.3,1,5.2c0,0,0,0.1,0,0.2
		c1.1,0,2.1,0,3.2,0c0,0,0,0.1,0,0.1c-0.2,0-0.3,0-0.5,0c-0.8,0-1.7,0-2.5,0c-0.2,0-0.3,0.1-0.3,0.3c1,0,2.1,0,3.1,0.4
		c-0.1,0-0.1,0-0.2,0c-0.9-0.1-1.9-0.2-2.8-0.2c-0.1,0-0.2,0.1-0.3,0.1c-0.8,1.3-2,1.9-3.4,2.2c-0.2,0-0.4,0.1-0.6,0.1
		c0.1,0.1,0.1,0.2,0.2,0.2c0.3,0.4,0.5,0.9,0.5,1.4c0,1,0,2,0,3c0,0.4,0,0.8,0.4,1.1c-0.5,0-1,0-1.3-0.4c-0.1-0.1-0.2-0.4-0.2-0.6
		c0-0.9,0-1.8,0-2.7c0-0.2,0-0.4-0.3-0.4c0,0.1,0,0.2,0,0.3c0,1,0,2,0,3c0,0.3,0.1,0.6,0.2,0.8c-0.6,0.2-1.3-0.3-1.3-1
		c0-1,0-1.9,0-2.9c0-0.1-0.1-0.2-0.1-0.3c0,0.1-0.1,0.2-0.1,0.3c0,0.9,0,1.9,0,2.8c0,0.8-0.2,1.1-1.1,1.2c-0.1,0-0.2,0-0.2,0
		c0.1-0.4,0.1-0.8,0.1-1.2c0-1,0-2,0-3c-0.3,0-0.3,0.2-0.3,0.4c0,0.9,0,1.7,0,2.6c0,0.8-0.6,1.2-1.4,1.1c0.3-0.3,0.3-0.7,0.3-1
		c0-0.6,0-1.3,0-2c-0.4,0-0.7,0-1.1,0c-0.9,0-1.6-0.3-2-1.1c-0.2-0.3-0.3-0.6-0.5-0.9c-0.3-0.4-0.6-0.8-0.9-1.2
		c0.3,0.1,0.6,0.1,0.8,0.3c0.3,0.1,0.5,0.4,0.7,0.6c1.2,1.1,1.4,1,2.9,1c0.1-0.3,0.2-0.5,0.3-0.8c0.1-0.2,0.3-0.4,0.5-0.7
		c-0.3-0.1-0.7-0.1-1-0.2c-1.4-0.3-2.6-0.9-3.3-2.1c0-0.1-0.2-0.1-0.3-0.1c-0.9,0.1-1.8,0.2-2.8,0.2c-0.1,0-0.2,0-0.2,0
		c1-0.3,2-0.4,3.1-0.3c0-0.3-0.1-0.3-0.3-0.3c-0.8,0-1.5,0-2.3,0c-0.2,0-0.5,0-0.7,0c1-0.2,2.1-0.1,3-0.1c-0.1-0.8-0.2-1.6-0.2-2.4
		c0-1,0.3-1.8,0.9-2.6c0.2-0.2,0.2-0.4,0.1-0.6c-0.2-0.8-0.1-1.6,0.1-2.4c0.1-0.2,0.2-0.2,0.4-0.2c0.9,0.1,1.7,0.4,2.5,0.9
		c0.1,0.1,0.4,0.1,0.5,0.1c1.5-0.3,2.9-0.3,4.4,0c0.2,0,0.4,0,0.5-0.1C21.8,10.5,22.7,10.2,23.7,10.1z"/>
</g>
</svg>
