<svg id="_16" data-name="16" xmlns="http://www.w3.org/2000/svg" viewBox="0 0 39 39"><defs><style>.cls-1{fill:#4d4d4f;}.cls-2{fill:#ffeb44;fill-rule:evenodd;}</style></defs><title>Artboard 5 copyportfolio-icons</title><rect class="cls-1" width="39" height="39"/><path class="cls-2" d="M13.63,19.49a5.87,5.87,0,1,1,5.86,5.88,5.89,5.89,0,0,1-5.86-5.88ZM25.56,8H13.44A5.45,5.45,0,0,0,8,13.44V25.56A5.46,5.46,0,0,0,13.44,31H25.56A5.45,5.45,0,0,0,31,25.56V13.44A5.45,5.45,0,0,0,25.56,8ZM13.44,9.36H25.56a4.08,4.08,0,0,1,4.08,4.08V25.56a4.08,4.08,0,0,1-4.08,4.08H13.44a4.08,4.08,0,0,1-4.08-4.08V13.44a4.08,4.08,0,0,1,4.08-4.08Zm13.33,1.71A1.2,1.2,0,1,0,28,12.27a1.19,1.19,0,0,0-1.19-1.2Zm.14,8.42a7.42,7.42,0,1,0-7.42,7.42,7.41,7.41,0,0,0,7.42-7.42Z"/></svg>