<svg id="_16" data-name="16" xmlns="http://www.w3.org/2000/svg" viewBox="0 0 39 39"><defs><style>.cls-1{fill:#4d4d4f;}.cls-2{fill:#ffeb44;fill-rule:evenodd;}</style></defs><title>Artboard 5portfolio-icons</title><rect class="cls-1" width="39" height="39"/><path class="cls-2" d="M8,19.74V31h5.36V15.66H8Zm22.87.63c-.35-2.9-1.68-4.71-5.6-4.71-2.3,0-3.85.85-4.5,2.08H20.7V15.66H16.42V31H20.9V23.39c0-2,.39-3.93,2.85-3.93s2.65,2.28,2.65,4.08V31H31V22.58a17,17,0,0,0-.13-2.21ZM10.68,8a2.68,2.68,0,1,0,2.68,2.68A2.68,2.68,0,0,0,10.68,8Z"/></svg>