<?xml version="1.0" encoding="utf-8"?>
<!-- Generator: Adobe Illustrator 18.1.1, SVG Export Plug-In . SVG Version: 6.00 Build 0)  -->
<!DOCTYPE svg PUBLIC "-//W3C//DTD SVG 1.1//EN" "http://www.w3.org/Graphics/SVG/1.1/DTD/svg11.dtd">
<svg version="1.1" id="Layer_1" xmlns="http://www.w3.org/2000/svg" xmlns:xlink="http://www.w3.org/1999/xlink" x="0px" y="0px"
	 width="244.5px" height="41.5px" viewBox="0 0 244.5 41.5" enable-background="new 0 0 244.5 41.5" xml:space="preserve">
<g>
	<path d="M12.1,37.9c-1.2,0-2.3-0.1-3.4-0.3S6.8,37.2,6,37c-0.8-0.2-1.5-0.5-2.1-0.7c-0.6-0.2-1-0.3-1.4-0.3l0.3-7.6h2.8l0.9,5.1
		c0.2,0.3,0.5,0.5,0.9,0.7c0.4,0.2,0.8,0.4,1.3,0.6s1,0.3,1.6,0.4c0.6,0.1,1.2,0.1,1.8,0.1c2.1,0,3.6-0.5,4.6-1.4
		c1-0.9,1.5-2.2,1.5-3.8c0-0.8-0.2-1.6-0.5-2.2s-0.8-1.2-1.4-1.7c-0.6-0.5-1.3-1-2.2-1.5c-0.9-0.5-1.8-0.9-2.9-1.4
		c-0.8-0.4-1.8-0.8-2.7-1.4s-1.9-1.2-2.7-2c-0.8-0.8-1.5-1.7-2.1-2.7S3,15.2,3,13.8c0-1.2,0.2-2.3,0.7-3.2s1.2-1.8,2.1-2.5
		C6.7,7.4,7.8,6.8,9,6.4c1.2-0.4,2.6-0.6,4.1-0.6c0.9,0,1.8,0.1,2.7,0.2c0.8,0.1,1.6,0.3,2.3,0.5C18.9,6.7,19.5,6.8,20,7
		c0.5,0.2,1,0.3,1.3,0.3l-0.3,7h-2.7l-1-4.8c-0.1-0.1-0.3-0.3-0.6-0.4c-0.3-0.1-0.6-0.3-1-0.4c-0.4-0.1-0.8-0.2-1.3-0.3
		C14,8.3,13.5,8.3,13,8.3c-1.9,0-3.2,0.4-4.1,1.1c-0.9,0.7-1.3,1.8-1.3,3.3c0,0.8,0.2,1.5,0.5,2.1c0.3,0.6,0.8,1.1,1.3,1.6
		s1.3,1,2.2,1.5s1.9,1,3,1.6c1,0.5,2,1.1,3.1,1.6c1,0.6,2,1.2,2.8,2c0.8,0.7,1.5,1.6,2,2.5c0.5,1,0.8,2.1,0.8,3.3
		c0,1.1-0.2,2.2-0.7,3.2c-0.5,1.1-1.2,2-2.1,2.9c-0.9,0.9-2.1,1.5-3.5,2.1C15.6,37.7,14,37.9,12.1,37.9z"/>
	<path d="M26.9,37.4v-2.3l3.5-0.6V9L27,8.4V6.2h21.2l0.6,6.4h-2.6l-1.3-3.7l-9.7-0.2v11.6l6.7-0.1l0.6-3.3h2.8v9.5h-2.8l-0.6-3.4
		l-6.7-0.1v12.2l11.2-0.5l2.4-5l2.6,0.8l-1.3,7.3H26.9z"/>
	<path d="M51.7,37.4l0-2.3l2.7-0.6L64.7,5.9h4.7l10.2,28.7l2.6,0.6v2.3H71v-2.3l3.3-0.6l-1.9-6H60.2l-1.9,6l3.5,0.6v2.3H51.7z
		 M65.4,12.4L61,26h10.5l-4.4-13.6l-0.9-3.3L65.4,12.4z"/>
	<path d="M83.5,37.4v-2.3l3.4-0.6V9l-3.4-0.6V6.2h8l14,20.3l2,3.8V9l-3.7-0.6V6.2h10.3v2.3L110.6,9v28.4h-3L93.2,16.9L90,11.4v23.2
		l3.8,0.6v2.3H83.5z"/>
	<path d="M130.1,22c0-1.7,0.3-3.3,0.7-4.8s1-2.9,1.7-4.1c0.7-1.2,1.5-2.3,2.5-3.3s2-1.8,3.1-2.4c1.1-0.7,2.3-1.2,3.6-1.5
		c1.3-0.3,2.5-0.5,3.8-0.5c2.2,0,4.3,0.4,6.1,1.2c1.8,0.8,3.4,1.9,4.7,3.3c1.3,1.4,2.3,3.1,3,5.1s1,4.1,1,6.4
		c-0.1,2.6-0.5,4.9-1.3,7c-0.8,2.1-1.9,3.8-3.2,5.3c-1.3,1.5-2.9,2.6-4.8,3.3c-1.8,0.8-3.8,1.2-5.9,1.2c-2.3,0-4.4-0.4-6.3-1.2
		c-1.9-0.8-3.5-2-4.8-3.4c-1.3-1.4-2.3-3.1-3-5.1C130.4,26.3,130.1,24.2,130.1,22z M145.4,34.7c1.3,0,2.4-0.3,3.3-0.8
		c0.9-0.6,1.6-1.4,2.1-2.5s0.9-2.5,1.1-4.2c0.2-1.7,0.3-3.7,0.3-5.9c0-0.9-0.1-1.8-0.2-2.8c-0.1-1-0.3-1.9-0.5-2.9
		c-0.2-0.9-0.5-1.8-0.9-2.7c-0.4-0.8-0.8-1.6-1.3-2.2c-0.5-0.6-1.1-1.1-1.7-1.5c-0.7-0.4-1.4-0.6-2.2-0.6c-1.4,0-2.5,0.3-3.4,0.9
		c-0.9,0.6-1.7,1.4-2.2,2.6c-0.6,1.1-1,2.5-1.2,4.2c-0.2,1.7-0.4,3.6-0.4,5.7c0,0.8,0.1,1.7,0.2,2.6c0.1,0.9,0.3,1.9,0.5,2.8
		c0.2,0.9,0.6,1.9,0.9,2.7c0.4,0.9,0.8,1.7,1.4,2.3s1.2,1.2,1.9,1.6C143.7,34.5,144.5,34.7,145.4,34.7z"/>
	<path d="M162.5,34.6l3.9-0.9V9.4l-3.9-0.5V5.5h14.9v3.4l-3.7,0.5v11.7l9.5-11.7l-3.3-0.5l-0.1-3.4h12.7v3.4l-3.8,0.5l-8.9,9.7
		c0.5,0.4,0.9,0.9,1.4,1.5c0.5,0.6,1,1.2,1.5,2c0.5,0.7,1,1.5,1.5,2.2s1,1.6,1.5,2.3c0.5,0.8,1,1.5,1.4,2.2s0.9,1.4,1.3,2
		c0.4,0.6,0.8,1.1,1.2,1.5c0.4,0.4,0.7,0.7,1,0.9l2.7,0.8v2.9h-8.7c-0.3,0-0.6-0.2-0.9-0.5c-0.3-0.3-0.7-0.8-1-1.3s-0.7-1.2-1-1.9
		c-0.3-0.7-0.7-1.5-1.1-2.3c-0.4-0.8-0.7-1.6-1.1-2.4c-0.4-0.8-0.8-1.6-1.1-2.3c-0.4-0.7-0.8-1.4-1.2-1.9c-0.4-0.6-0.8-1-1.2-1.3
		l-2.3,2.6v7.7l4.1,0.9v2.9h-15.3V34.6z"/>
	<path d="M193.2,34.6l2.7-0.8l10.1-28.2h6.8l9.8,28.3l3.1,0.8v2.8h-14.1v-2.8l2.8-0.9l-0.9-3.1h-11.1l-0.9,3l3.1,1v2.9h-11.5V34.6z
		 M212.6,26.7l-2.7-9.4l-1.5-5.6l-4.6,15H212.6z"/>
	<path d="M227.1,34.6l3.9-0.8V9.4l-3.9-0.5V5.5h14.9v3.4l-3.7,0.5v24.3l3.9,0.9v2.9h-15.2V34.6z"/>
</g>
</svg>
