<?xml version="1.0" encoding="utf-8"?>
<!-- Generator: Adobe Illustrator 19.1.0, SVG Export Plug-In . SVG Version: 6.00 Build 0)  -->
<svg version="1.1" id="Layer_1" xmlns="http://www.w3.org/2000/svg" xmlns:xlink="http://www.w3.org/1999/xlink" x="0px" y="0px"
	 width="39.8px" height="32.6px" viewBox="0 0 39.8 32.6" style="enable-background:new 0 0 39.8 32.6;" xml:space="preserve">
<style type="text/css">
	.st0{display:none;}
	.st1{display:inline;opacity:0.95;fill:url(#SVGID_1_);}
	.st2{display:inline;}
	.st3{fill:url(#SVGID_2_);}
	.st4{opacity:0.1;}
	.st5{fill:url(#SVGID_3_);}
	.st6{fill:url(#SVGID_4_);}
	.st7{display:inline;opacity:0.95;fill:url(#SVGID_5_);}
	.st8{fill:url(#SVGID_6_);}
	.st9{fill:url(#SVGID_7_);}
	.st10{fill:url(#SVGID_8_);}
	.st11{display:inline;opacity:0.95;fill:url(#SVGID_9_);}
	.st12{fill:url(#SVGID_10_);}
	.st13{fill:url(#SVGID_11_);}
	.st14{fill:url(#SVGID_12_);}
	.st15{display:inline;opacity:0.95;fill:url(#SVGID_13_);}
	.st16{fill:url(#SVGID_14_);}
	.st17{display:inline;fill:url(#SVGID_15_);}
	.st18{display:inline;fill:url(#SVGID_16_);}
	.st19{display:inline;opacity:0.95;fill:url(#SVGID_17_);}
	.st20{fill:url(#SVGID_18_);}
	.st21{fill:url(#SVGID_19_);}
	.st22{fill:url(#SVGID_20_);}
	.st23{display:inline;opacity:0.95;fill:url(#SVGID_21_);}
	.st24{fill:url(#SVGID_22_);}
	.st25{fill:url(#SVGID_23_);}
	.st26{fill:url(#SVGID_24_);}
	.st27{fill:#7F8FA1;}
	.st28{fill:#F9A719;}
</style>
<g class="st0">
	<linearGradient id="SVGID_1_" gradientUnits="userSpaceOnUse" x1="1.5834" y1="0.7953" x2="38.2499" y2="37.4618">
		<stop  offset="0" style="stop-color:#32297C"/>
		<stop  offset="1" style="stop-color:#282761"/>
	</linearGradient>
	<rect x="1.6" y="0.8" class="st1" width="36.7" height="36.7"/>
	<g class="st2">
		
			<image style="overflow:visible;opacity:0.4;" width="49" height="49" xlink:href="9F2683384C797CF0.png"  transform="matrix(1 0 0 1 -4.4759 -4.4759)">
		</image>
		<g>
			<g>
				<linearGradient id="SVGID_2_" gradientUnits="userSpaceOnUse" x1="-0.2911" y1="-0.702" x2="40.0411" y2="38.702">
					<stop  offset="0" style="stop-color:#95C8FD"/>
					<stop  offset="1" style="stop-color:#73B4F4"/>
				</linearGradient>
				<path class="st3" d="M0-1v40h39.8V-1H0z M36.6,35.8H3.2V2.3h33.3V35.8z"/>
			</g>
		</g>
	</g>
	<g class="st2">
		<g class="st4">
			<path d="M10.4,11.8c1.1-0.2,2.6-0.4,4.6-0.4c2.2,0,3.8,0.5,4.9,1.4c1,0.8,1.6,2.2,1.6,3.7c0,1.6-0.5,2.9-1.4,3.8
				c-1.2,1.2-3.1,1.8-5.2,1.8c-0.6,0-1.1,0-1.5-0.1v6.4h-3V11.8z M13.4,19.7c0.4,0.1,0.9,0.1,1.5,0.1c2.2,0,3.6-1.1,3.6-3.1
				c0-1.9-1.3-2.9-3.3-2.9c-0.8,0-1.4,0.1-1.7,0.2V19.7z"/>
		</g>
		<g>
			<linearGradient id="SVGID_3_" gradientUnits="userSpaceOnUse" x1="10.3432" y1="18.6207" x2="30.1351" y2="18.6207">
				<stop  offset="0" style="stop-color:#95C8FD"/>
				<stop  offset="1" style="stop-color:#73B4F4"/>
			</linearGradient>
			<path class="st5" d="M10.4,10.4c1.1-0.2,2.6-0.4,4.6-0.4c2.2,0,3.8,0.5,4.9,1.4c1,0.8,1.6,2.2,1.6,3.7c0,1.6-0.5,2.9-1.4,3.8
				c-1.2,1.2-3.1,1.8-5.2,1.8c-0.6,0-1.1,0-1.5-0.1v6.4h-3V10.4z M13.4,18.3c0.4,0.1,0.9,0.1,1.5,0.1c2.2,0,3.6-1.1,3.6-3.1
				c0-1.9-1.3-2.9-3.3-2.9c-0.8,0-1.4,0.1-1.7,0.2V18.3z"/>
		</g>
	</g>
	<g class="st2">
		<g class="st4">
			<path d="M22.4,25.6c0.7,0.4,2,0.9,3,0.9c1.3,0,1.9-0.6,1.9-1.4c0-0.8-0.5-1.3-1.9-1.8c-2.3-0.8-3.3-2.1-3.3-3.6
				c0-2.2,1.7-3.8,4.5-3.8c1.3,0,2.5,0.4,3.1,0.7l-0.6,2.2c-0.5-0.3-1.5-0.7-2.5-0.7c-1.1,0-1.7,0.5-1.7,1.3c0,0.8,0.6,1.2,2.1,1.7
				c2.1,0.8,3.1,1.9,3.2,3.7c0,2.2-1.7,3.8-4.8,3.8c-1.4,0-2.7-0.4-3.6-0.9L22.4,25.6z"/>
		</g>
		<g>
			<linearGradient id="SVGID_4_" gradientUnits="userSpaceOnUse" x1="10.3439" y1="21.0314" x2="30.1353" y2="21.0314">
				<stop  offset="0" style="stop-color:#95C8FD"/>
				<stop  offset="1" style="stop-color:#73B4F4"/>
			</linearGradient>
			<path class="st6" d="M22.4,24.3c0.7,0.4,2,0.9,3,0.9c1.3,0,1.9-0.6,1.9-1.4c0-0.8-0.5-1.3-1.9-1.8c-2.3-0.8-3.3-2.1-3.3-3.6
				c0-2.2,1.7-3.8,4.5-3.8c1.3,0,2.5,0.4,3.1,0.7l-0.6,2.2c-0.5-0.3-1.5-0.7-2.5-0.7c-1.1,0-1.7,0.5-1.7,1.3c0,0.8,0.6,1.2,2.1,1.7
				c2.1,0.8,3.1,1.9,3.2,3.7c0,2.2-1.7,3.8-4.8,3.8c-1.4,0-2.7-0.4-3.6-0.9L22.4,24.3z"/>
		</g>
	</g>
</g>
<g class="st0">
	<linearGradient id="SVGID_5_" gradientUnits="userSpaceOnUse" x1="1.6213" y1="0.9165" x2="38.211" y2="37.5061">
		<stop  offset="0" style="stop-color:#5E4421"/>
		<stop  offset="1" style="stop-color:#373100"/>
	</linearGradient>
	<rect x="1.6" y="1" class="st7" width="36.7" height="36.5"/>
	<g class="st2">
		
			<image style="overflow:visible;opacity:0.4;" width="49" height="49" xlink:href="9F2683384C797CF1.png"  transform="matrix(1 0 0 1 -4.4759 -4.4759)">
		</image>
		<g>
			<g>
				<linearGradient id="SVGID_6_" gradientUnits="userSpaceOnUse" x1="-0.2494" y1="-0.5779" x2="39.9994" y2="38.7447">
					<stop  offset="0" style="stop-color:#FDC45E"/>
					<stop  offset="1" style="stop-color:#FC9C0D"/>
				</linearGradient>
				<path class="st8" d="M0-0.8V39h39.8V-0.8H0z M36.6,35.8H3.2V2.4h33.3V35.8z"/>
			</g>
		</g>
	</g>
	<g class="st2">
		<g class="st4">
			<path d="M14.5,23.8l-1.4,4.8H10l5.3-16.9h3.8l5.3,16.9h-3.2l-1.5-4.8H14.5z M19.2,21.5l-1.3-4.2c-0.3-1-0.6-2.2-0.8-3.2h0
				c-0.2,1-0.5,2.2-0.8,3.2L15,21.5H19.2z"/>
		</g>
		<g>
			<linearGradient id="SVGID_7_" gradientUnits="userSpaceOnUse" x1="9.6881" y1="18.8126" x2="28.5229" y2="18.8126">
				<stop  offset="0" style="stop-color:#FDC45E"/>
				<stop  offset="1" style="stop-color:#FC9C0D"/>
			</linearGradient>
			<path class="st9" d="M14.5,22.5l-1.4,4.8H10l5.3-16.9h3.8l5.3,16.9h-3.2l-1.5-4.8H14.5z M19.2,20.1L17.9,16
				c-0.3-1-0.6-2.2-0.8-3.2h0c-0.2,1-0.5,2.2-0.8,3.2L15,20.1H19.2z"/>
		</g>
	</g>
	<g class="st2">
		<g class="st4">
			<path d="M28.8,13c0,0.9-0.7,1.7-1.7,1.7c-1,0-1.7-0.7-1.7-1.7c0-1,0.7-1.7,1.7-1.7C28.1,11.3,28.7,12,28.8,13z M25.6,28.6V16.4h3
				v12.2H25.6z"/>
		</g>
		<g>
			<linearGradient id="SVGID_8_" gradientUnits="userSpaceOnUse" x1="9.6855" y1="18.6125" x2="28.5235" y2="18.6125">
				<stop  offset="0" style="stop-color:#FDC45E"/>
				<stop  offset="1" style="stop-color:#FC9C0D"/>
			</linearGradient>
			<path class="st10" d="M28.8,11.7c0,0.9-0.7,1.7-1.7,1.7c-1,0-1.7-0.7-1.7-1.7c0-1,0.7-1.7,1.7-1.7C28.1,10,28.7,10.7,28.8,11.7z
				 M25.6,27.2V15.1h3v12.2H25.6z"/>
		</g>
	</g>
</g>
<g class="st0">
	<linearGradient id="SVGID_9_" gradientUnits="userSpaceOnUse" x1="1.5833" y1="0.7952" x2="38.2501" y2="37.462">
		<stop  offset="0" style="stop-color:#58223A"/>
		<stop  offset="1" style="stop-color:#412734"/>
	</linearGradient>
	<rect x="1.6" y="0.8" class="st11" width="36.7" height="36.7"/>
	<g class="st2">
		
			<image style="overflow:visible;opacity:0.4;" width="49" height="49" xlink:href="9F2683384C797CF7.png"  transform="matrix(1 0 0 1 -4.4759 -4.4759)">
		</image>
		<g>
			<g>
				<linearGradient id="SVGID_10_" gradientUnits="userSpaceOnUse" x1="-0.2911" y1="-0.702" x2="40.0411" y2="38.702">
					<stop  offset="0" style="stop-color:#E955AB"/>
					<stop  offset="1" style="stop-color:#E33594"/>
				</linearGradient>
				<path class="st12" d="M0-1v40h39.8V-1H0z M36.6,35.8H3.2V2.3h33.3V35.8z"/>
			</g>
		</g>
	</g>
	<g class="st2">
		<g class="st4">
			<path d="M14.8,11.5v16.9h-3V11.5H14.8z"/>
		</g>
		<g>
			<g>
				<linearGradient id="SVGID_11_" gradientUnits="userSpaceOnUse" x1="11.7324" y1="18.6745" x2="27.9523" y2="18.6745">
					<stop  offset="0" style="stop-color:#E955AB"/>
					<stop  offset="1" style="stop-color:#E33594"/>
				</linearGradient>
				<path class="st13" d="M14.8,10.2v16.9h-3V10.2H14.8z"/>
			</g>
		</g>
	</g>
	<g class="st2">
		<g class="st4">
			<path d="M27.8,10.6V25c0,1.3,0,2.6,0.1,3.4h-2.5l-0.1-1.9h0c-0.6,1.4-2,2.2-3.5,2.2c-2.6,0-4.6-2.5-4.6-6.3
				c0-4.1,2.3-6.5,4.9-6.5c1.5,0,2.6,0.7,3.1,1.6h0v-6.9H27.8z M25.1,21.3c0-0.3,0-0.6-0.1-0.8c-0.2-1.2-1.1-2.2-2.4-2.2
				c-1.8,0-2.7,1.8-2.7,4c0,2.2,1,3.9,2.7,3.9c1.1,0,2.1-0.9,2.4-2.2c0.1-0.3,0.1-0.6,0.1-0.9V21.3z"/>
		</g>
		<g>
			<linearGradient id="SVGID_12_" gradientUnits="userSpaceOnUse" x1="11.7321" y1="18.3608" x2="27.9521" y2="18.3608">
				<stop  offset="0" style="stop-color:#E955AB"/>
				<stop  offset="1" style="stop-color:#E33594"/>
			</linearGradient>
			<path class="st14" d="M27.8,9.3v14.4c0,1.3,0,2.6,0.1,3.4h-2.5l-0.1-1.9h0c-0.6,1.4-2,2.2-3.5,2.2c-2.6,0-4.6-2.5-4.6-6.3
				c0-4.1,2.3-6.5,4.9-6.5c1.5,0,2.6,0.7,3.1,1.6h0V9.3H27.8z M25.1,20c0-0.3,0-0.6-0.1-0.8C24.8,18,23.9,17,22.6,17
				c-1.8,0-2.7,1.8-2.7,4c0,2.2,1,3.9,2.7,3.9c1.1,0,2.1-0.9,2.4-2.2c0.1-0.3,0.1-0.6,0.1-0.9V20z"/>
		</g>
	</g>
</g>
<g class="st0">
	<linearGradient id="SVGID_13_" gradientUnits="userSpaceOnUse" x1="1.5826" y1="0.7924" x2="38.2509" y2="37.4607">
		<stop  offset="0" style="stop-color:#52315C"/>
		<stop  offset="1" style="stop-color:#352941"/>
	</linearGradient>
	<rect x="1.6" y="0.8" class="st15" width="36.7" height="36.7"/>
	<g class="st2">
		
			<image style="overflow:visible;opacity:0.4;" width="49" height="49" xlink:href="9F2683384C797CF2.png"  transform="matrix(1 0 0 1 -4.4759 -4.4759)">
		</image>
		<g>
			<g>
				<linearGradient id="SVGID_14_" gradientUnits="userSpaceOnUse" x1="-0.2921" y1="-0.7051" x2="40.0421" y2="38.701">
					<stop  offset="0" style="stop-color:#DC87FC"/>
					<stop  offset="1" style="stop-color:#D13FFA"/>
				</linearGradient>
				<path class="st16" d="M0-1v40h39.8V-1H0z M36.6,35.8H3.2V2.3h33.3V35.8z"/>
			</g>
		</g>
	</g>
	<linearGradient id="SVGID_15_" gradientUnits="userSpaceOnUse" x1="10.4774" y1="18.7244" x2="30.603" y2="18.7244">
		<stop  offset="0" style="stop-color:#DC87FC"/>
		<stop  offset="1" style="stop-color:#D13FFA"/>
	</linearGradient>
	<path class="st17" d="M10.4,10.4c1.1-0.2,2.6-0.4,4.7-0.4c2.2,0,3.9,0.5,5,1.4c1,0.8,1.6,2.2,1.6,3.8c0,1.6-0.5,3-1.4,3.9
		C19,20.4,17.1,21,15,21c-0.6,0-1.1,0-1.5-0.1v6.5h-3V10.4z M13.5,18.4c0.4,0.1,0.9,0.1,1.5,0.1c2.3,0,3.7-1.2,3.7-3.2
		c0-1.9-1.3-3-3.4-3c-0.8,0-1.4,0.1-1.8,0.2V18.4z"/>
	<linearGradient id="SVGID_16_" gradientUnits="userSpaceOnUse" x1="10.479" y1="21.0462" x2="30.6027" y2="21.0462">
		<stop  offset="0" style="stop-color:#DC87FC"/>
		<stop  offset="1" style="stop-color:#D13FFA"/>
	</linearGradient>
	<path class="st18" d="M23.9,19c0-1.7,0-2.9-0.1-4h2.7l0.1,2.4h0.1c0.6-1.8,2-2.7,3.3-2.7c0.3,0,0.5,0,0.7,0.1v3
		c-0.2-0.1-0.5-0.1-0.9-0.1c-1.5,0-2.5,1-2.7,2.4c0,0.3-0.1,0.6-0.1,1v6.5h-3.1V19z"/>
</g>
<g class="st0">
	<linearGradient id="SVGID_17_" gradientUnits="userSpaceOnUse" x1="1.5834" y1="0.7953" x2="38.2499" y2="37.4618">
		<stop  offset="0" style="stop-color:#375428"/>
		<stop  offset="1" style="stop-color:#2D342C"/>
	</linearGradient>
	<rect x="1.6" y="0.8" class="st19" width="36.7" height="36.7"/>
	<g class="st2">
		
			<image style="overflow:visible;opacity:0.4;" width="49" height="49" xlink:href="9F2683384C797CF3.png"  transform="matrix(1 0 0 1 -4.4759 -4.4759)">
		</image>
		<g>
			<g>
				<linearGradient id="SVGID_18_" gradientUnits="userSpaceOnUse" x1="-0.2911" y1="-0.702" x2="40.0411" y2="38.702">
					<stop  offset="0" style="stop-color:#8EF208"/>
					<stop  offset="1" style="stop-color:#83E605"/>
				</linearGradient>
				<path class="st20" d="M0-1v40h39.8V-1H0z M36.6,35.8H3.2V2.3h33.3V35.8z"/>
			</g>
		</g>
	</g>
	<g class="st2">
		<g class="st4">
			<path d="M5.9,11.7c1.2-0.2,2.7-0.4,4.3-0.4c2.8,0,4.7,0.7,6.1,2c1.4,1.3,2.3,3.3,2.3,6.2c0,3-0.9,5.3-2.3,6.7
				c-1.5,1.5-3.8,2.3-6.7,2.3c-1.6,0-2.8-0.1-3.7-0.2V11.7z M8.6,26c0.4,0.1,0.9,0.1,1.5,0.1c3.5,0,5.6-2.2,5.6-6.5
				c0-3.7-1.9-5.9-5.3-5.9c-0.9,0-1.5,0.1-1.9,0.2V26z"/>
		</g>
		<g>
			<linearGradient id="SVGID_19_" gradientUnits="userSpaceOnUse" x1="5.9601" y1="18.6168" x2="34.0119" y2="18.6168">
				<stop  offset="0" style="stop-color:#8EF208"/>
				<stop  offset="1" style="stop-color:#83E605"/>
			</linearGradient>
			<path class="st21" d="M5.9,10.4c1.2-0.2,2.7-0.4,4.3-0.4c2.8,0,4.7,0.7,6.1,2c1.4,1.3,2.3,3.3,2.3,6.2c0,3-0.9,5.3-2.3,6.7
				c-1.5,1.5-3.8,2.3-6.7,2.3c-1.6,0-2.8-0.1-3.7-0.2V10.4z M8.6,24.7c0.4,0.1,0.9,0.1,1.5,0.1c3.5,0,5.6-2.2,5.6-6.5
				c0-3.7-1.9-5.9-5.3-5.9c-0.9,0-1.5,0.1-1.9,0.2V24.7z"/>
		</g>
	</g>
	<g class="st2">
		<g class="st4">
			<path d="M21.6,16.2l1.1,5.5c0.2,1.3,0.5,2.6,0.7,4h0c0.2-1.3,0.6-2.7,0.9-3.9l1.3-5.6h2.1l1.3,5.4c0.3,1.4,0.6,2.8,0.8,4.1h0
				c0.2-1.3,0.4-2.7,0.7-4.1l1.2-5.4h2.6l-3.3,12.2h-2.4l-1.2-5c-0.3-1.3-0.6-2.4-0.8-3.9h0c-0.2,1.5-0.5,2.7-0.8,3.9l-1.3,5H22
				l-3.1-12.2H21.6z"/>
		</g>
		<g>
			<linearGradient id="SVGID_20_" gradientUnits="userSpaceOnUse" x1="5.96" y1="20.9393" x2="34.0124" y2="20.9393">
				<stop  offset="0" style="stop-color:#8EF208"/>
				<stop  offset="1" style="stop-color:#83E605"/>
			</linearGradient>
			<path class="st22" d="M21.6,14.8l1.1,5.5c0.2,1.3,0.5,2.6,0.7,4h0c0.2-1.3,0.6-2.7,0.9-3.9l1.3-5.6h2.1l1.3,5.4
				c0.3,1.4,0.6,2.8,0.8,4.1h0c0.2-1.3,0.4-2.7,0.7-4.1l1.2-5.4h2.6l-3.3,12.2h-2.4l-1.2-5c-0.3-1.3-0.6-2.4-0.8-3.9h0
				c-0.2,1.5-0.5,2.7-0.8,3.9l-1.3,5H22l-3.1-12.2H21.6z"/>
		</g>
	</g>
</g>
<g class="st0">
	<linearGradient id="SVGID_21_" gradientUnits="userSpaceOnUse" x1="1.5831" y1="0.7952" x2="38.2498" y2="37.4619">
		<stop  offset="0" style="stop-color:#2F2965"/>
		<stop  offset="1" style="stop-color:#2C2B53"/>
	</linearGradient>
	<rect x="1.6" y="0.8" class="st23" width="36.7" height="36.7"/>
	<g class="st2">
		
			<image style="overflow:visible;opacity:0.4;" width="49" height="49" xlink:href="9F2683384C797CFE.png"  transform="matrix(1 0 0 1 -4.4759 -4.4759)">
		</image>
		<g>
			<g>
				<linearGradient id="SVGID_22_" gradientUnits="userSpaceOnUse" x1="-0.2911" y1="-0.702" x2="40.0411" y2="38.702">
					<stop  offset="0" style="stop-color:#D199FE"/>
					<stop  offset="1" style="stop-color:#C179FF"/>
				</linearGradient>
				<path class="st24" d="M0-1v40h39.8V-1H0z M36.6,35.8H3.2V2.3h33.3V35.8z"/>
			</g>
		</g>
	</g>
	<g class="st2">
		<g class="st4">
			<path d="M10.8,23.7l-1.4,4.9H6.2l5.4-17.3h3.9l5.5,17.3h-3.3l-1.5-4.9H10.8z M15.6,21.3L14.3,17c-0.3-1.1-0.6-2.2-0.8-3.2h0
				c-0.2,1-0.5,2.2-0.8,3.2l-1.3,4.3H15.6z"/>
		</g>
		<g>
			<linearGradient id="SVGID_23_" gradientUnits="userSpaceOnUse" x1="6.3202" y1="18.6191" x2="33.0142" y2="18.6191">
				<stop  offset="0" style="stop-color:#D199FE"/>
				<stop  offset="1" style="stop-color:#C179FF"/>
			</linearGradient>
			<path class="st25" d="M10.8,22.4l-1.4,4.9H6.2L11.6,10h3.9l5.5,17.3h-3.3l-1.5-4.9H10.8z M15.6,20l-1.3-4.3
				c-0.3-1.1-0.6-2.2-0.8-3.2h0c-0.2,1-0.5,2.2-0.8,3.2L11.3,20H15.6z"/>
		</g>
	</g>
	<g class="st2">
		<g class="st4">
			<path d="M25,23.2c0.1,2.3,1.8,3.2,3.7,3.2c1.4,0,2.4-0.2,3.4-0.6l0.4,2.2c-1,0.4-2.5,0.8-4.2,0.8c-3.9,0-6.3-2.5-6.3-6.3
				c0-3.5,2-6.7,5.9-6.7c4,0,5.2,3.3,5.2,6.1c0,0.6,0,1.1-0.1,1.3H25z M30.3,21c0-1.2-0.5-3.1-2.5-3.1c-1.9,0-2.7,1.8-2.8,3.1H30.3z
				"/>
		</g>
		<g>
			<linearGradient id="SVGID_24_" gradientUnits="userSpaceOnUse" x1="6.3205" y1="21.0178" x2="33.0139" y2="21.0178">
				<stop  offset="0" style="stop-color:#D199FE"/>
				<stop  offset="1" style="stop-color:#C179FF"/>
			</linearGradient>
			<path class="st26" d="M25,21.9c0.1,2.3,1.8,3.2,3.7,3.2c1.4,0,2.4-0.2,3.4-0.6l0.4,2.2c-1,0.4-2.5,0.8-4.2,0.8
				c-3.9,0-6.3-2.5-6.3-6.3c0-3.5,2-6.7,5.9-6.7c4,0,5.2,3.3,5.2,6.1c0,0.6,0,1.1-0.1,1.3H25z M30.3,19.7c0-1.2-0.5-3.1-2.5-3.1
				c-1.9,0-2.7,1.8-2.8,3.1H30.3z"/>
		</g>
	</g>
</g>
<path class="st27" d="M37.6,30.8c-0.7,0.8-1.4,0.8-2.2,0.8c-10.3,0-20.5,0-30.8,0c-0.4,0-0.8,0-1.1-0.1c-0.3-0.1-0.7-0.1-0.8-0.5
	c-0.1-0.4,0.3-0.5,0.6-0.7c2.5-1.9,4.9-3.7,7.4-5.6c0.4-0.3,1.4-0.6,0.9-1.3c-0.5-0.6-1.1,0.2-1.5,0.5c-2.4,1.8-4.8,3.6-7.2,5.4
	c-0.4,0.3-0.8,0.9-1.3,0.6C1.1,29.7,1,29.1,1,28.5c0-5,0-9.9,0-14.9c0-1.2,0.5-1.1,1.3-0.5c1.7,1.3,3.3,2.5,5,3.8
	c3.3,2.4,6.6,4.8,9.9,7.2c2,1.4,3.9,1.4,6-0.1c4.7-3.5,9.5-7.1,14.2-10.6c0.4-0.3,0.7-0.9,1.2-0.6c0.5,0.2,0.3,0.9,0.3,1.4
	c0,4.6,0,9.2,0,13.8c0,0.4-0.1,0.8-0.1,1.2c-0.1,1-0.6,1-1.3,0.5c-2.3-1.8-4.7-3.5-7-5.3c-0.3-0.2-0.6-0.5-0.9-0.7
	c-0.3-0.2-0.7-0.5-1-0.1c-0.3,0.4,0.1,0.7,0.4,0.9c1.7,1.3,3.4,2.5,5.1,3.7C35.2,29,36.4,29.9,37.6,30.8z"/>
<path class="st27" d="M37.3,11c-1.6,1.2-3,2.3-4.5,3.4C32,10,32,10,27.5,10c-5.2,0-10.4,0-15.6,0c-4,0-4.1,0.1-4.6,4.3
	c-1.5-1-2.8-2-4.1-3c-0.5-0.4,0-0.7,0.3-0.8c4.9-3,9.7-6.1,14.6-9.1c1.4-0.9,3-0.7,4.4,0.1C27.4,4.6,32.2,7.7,37.3,11z"/>
<path class="st28" d="M20,18.9c-1.1,0-2.2,0-3.3,0c-0.4,0-0.8,0-0.8-0.5c0-0.4,0.4-0.4,0.8-0.4c2.3,0,4.6,0,6.9,0
	c0.4,0,0.9-0.1,0.8,0.5c0,0.5-0.5,0.5-0.9,0.5C22.3,18.9,21.2,18.9,20,18.9z"/>
<path class="st28" d="M20.1,13.7c-1.2,0-2.3,0-3.5,0c-0.3,0-0.7,0-0.8-0.4c0-0.4,0.3-0.5,0.7-0.5c2.4,0,4.9,0,7.3,0
	c0.3,0,0.6,0.1,0.6,0.4c0,0.4-0.3,0.5-0.7,0.5C22.5,13.7,21.3,13.7,20.1,13.7C20.1,13.7,20.1,13.7,20.1,13.7z"/>
<path class="st28" d="M20.1,16.3c-1.2,0-2.3,0-3.5,0c-0.4,0-0.7-0.1-0.7-0.5c0-0.4,0.4-0.5,0.7-0.5c2.4,0,4.7,0,7.1,0
	c0.3,0,0.7,0,0.8,0.4c0,0.4-0.4,0.5-0.7,0.5C22.5,16.3,21.3,16.3,20.1,16.3C20.1,16.3,20.1,16.3,20.1,16.3z"/>
</svg>
