<?xml version="1.0" encoding="utf-8"?>
<!-- Generator: Adobe Illustrator 19.1.0, SVG Export Plug-In . SVG Version: 6.00 Build 0)  -->
<svg version="1.1" id="Layer_1" xmlns="http://www.w3.org/2000/svg" xmlns:xlink="http://www.w3.org/1999/xlink" x="0px" y="0px"
	 width="46.8px" height="37.8px" viewBox="0 0 46.8 37.8" style="enable-background:new 0 0 46.8 37.8;" xml:space="preserve">
<style type="text/css">
	.st0{display:none;}
	.st1{display:inline;opacity:0.95;fill:url(#SVGID_1_);}
	.st2{display:inline;}
	.st3{fill:url(#SVGID_2_);}
	.st4{opacity:0.1;}
	.st5{fill:url(#SVGID_3_);}
	.st6{fill:url(#SVGID_4_);}
	.st7{display:inline;opacity:0.95;fill:url(#SVGID_5_);}
	.st8{fill:url(#SVGID_6_);}
	.st9{fill:url(#SVGID_7_);}
	.st10{fill:url(#SVGID_8_);}
	.st11{display:inline;opacity:0.95;fill:url(#SVGID_9_);}
	.st12{fill:url(#SVGID_10_);}
	.st13{fill:url(#SVGID_11_);}
	.st14{fill:url(#SVGID_12_);}
	.st15{display:inline;opacity:0.95;fill:url(#SVGID_13_);}
	.st16{fill:url(#SVGID_14_);}
	.st17{display:inline;fill:url(#SVGID_15_);}
	.st18{display:inline;fill:url(#SVGID_16_);}
	.st19{display:inline;opacity:0.95;fill:url(#SVGID_17_);}
	.st20{fill:url(#SVGID_18_);}
	.st21{fill:url(#SVGID_19_);}
	.st22{fill:url(#SVGID_20_);}
	.st23{display:inline;opacity:0.95;fill:url(#SVGID_21_);}
	.st24{fill:url(#SVGID_22_);}
	.st25{fill:url(#SVGID_23_);}
	.st26{fill:url(#SVGID_24_);}
	.st27{fill:#7F8FA1;}
	.st28{fill:#F9A719;}
</style>
<g class="st0">
	<linearGradient id="SVGID_1_" gradientUnits="userSpaceOnUse" x1="1.5834" y1="6.0453" x2="38.2499" y2="42.7118">
		<stop  offset="0" style="stop-color:#32297C"/>
		<stop  offset="1" style="stop-color:#282761"/>
	</linearGradient>
	<rect x="1.6" y="6" class="st1" width="36.7" height="36.7"/>
	<g class="st2">
		
			<image style="overflow:visible;opacity:0.4;" width="49" height="49" xlink:href="9F2683384C797CF5.png"  transform="matrix(1 0 0 1 -4.4759 0.7741)">
		</image>
		<g>
			<g>
				<linearGradient id="SVGID_2_" gradientUnits="userSpaceOnUse" x1="-0.2911" y1="4.548" x2="40.0411" y2="43.952">
					<stop  offset="0" style="stop-color:#95C8FD"/>
					<stop  offset="1" style="stop-color:#73B4F4"/>
				</linearGradient>
				<path class="st3" d="M0,4.2v40h39.8v-40H0z M36.6,41.1H3.2V7.5h33.3V41.1z"/>
			</g>
		</g>
	</g>
	<g class="st2">
		<g class="st4">
			<path d="M10.4,17c1.1-0.2,2.6-0.4,4.6-0.4c2.2,0,3.8,0.5,4.9,1.4c1,0.8,1.6,2.2,1.6,3.7c0,1.6-0.5,2.9-1.4,3.8
				c-1.2,1.2-3.1,1.8-5.2,1.8c-0.6,0-1.1,0-1.5-0.1v6.4h-3V17z M13.4,24.9c0.4,0.1,0.9,0.1,1.5,0.1c2.2,0,3.6-1.1,3.6-3.1
				c0-1.9-1.3-2.9-3.3-2.9c-0.8,0-1.4,0.1-1.7,0.2V24.9z"/>
		</g>
		<g>
			<linearGradient id="SVGID_3_" gradientUnits="userSpaceOnUse" x1="10.3432" y1="23.8707" x2="30.1351" y2="23.8707">
				<stop  offset="0" style="stop-color:#95C8FD"/>
				<stop  offset="1" style="stop-color:#73B4F4"/>
			</linearGradient>
			<path class="st5" d="M10.4,15.7c1.1-0.2,2.6-0.4,4.6-0.4c2.2,0,3.8,0.5,4.9,1.4c1,0.8,1.6,2.2,1.6,3.7c0,1.6-0.5,2.9-1.4,3.8
				c-1.2,1.2-3.1,1.8-5.2,1.8c-0.6,0-1.1,0-1.5-0.1v6.4h-3V15.7z M13.4,23.6c0.4,0.1,0.9,0.1,1.5,0.1c2.2,0,3.6-1.1,3.6-3.1
				c0-1.9-1.3-2.9-3.3-2.9c-0.8,0-1.4,0.1-1.7,0.2V23.6z"/>
		</g>
	</g>
	<g class="st2">
		<g class="st4">
			<path d="M22.4,30.9c0.7,0.4,2,0.9,3,0.9c1.3,0,1.9-0.6,1.9-1.4c0-0.8-0.5-1.3-1.9-1.8c-2.3-0.8-3.3-2.1-3.3-3.6
				c0-2.2,1.7-3.8,4.5-3.8c1.3,0,2.5,0.4,3.1,0.7l-0.6,2.2c-0.5-0.3-1.5-0.7-2.5-0.7c-1.1,0-1.7,0.5-1.7,1.3c0,0.8,0.6,1.2,2.1,1.7
				c2.1,0.8,3.1,1.9,3.2,3.7c0,2.2-1.7,3.8-4.8,3.8c-1.4,0-2.7-0.4-3.6-0.9L22.4,30.9z"/>
		</g>
		<g>
			<linearGradient id="SVGID_4_" gradientUnits="userSpaceOnUse" x1="10.3439" y1="26.2814" x2="30.1353" y2="26.2814">
				<stop  offset="0" style="stop-color:#95C8FD"/>
				<stop  offset="1" style="stop-color:#73B4F4"/>
			</linearGradient>
			<path class="st6" d="M22.4,29.6c0.7,0.4,2,0.9,3,0.9c1.3,0,1.9-0.6,1.9-1.4c0-0.8-0.5-1.3-1.9-1.8c-2.3-0.8-3.3-2.1-3.3-3.6
				c0-2.2,1.7-3.8,4.5-3.8c1.3,0,2.5,0.4,3.1,0.7l-0.6,2.2c-0.5-0.3-1.5-0.7-2.5-0.7c-1.1,0-1.7,0.5-1.7,1.3c0,0.8,0.6,1.2,2.1,1.7
				c2.1,0.8,3.1,1.9,3.2,3.7c0,2.2-1.7,3.8-4.8,3.8c-1.4,0-2.7-0.4-3.6-0.9L22.4,29.6z"/>
		</g>
	</g>
</g>
<g class="st0">
	<linearGradient id="SVGID_5_" gradientUnits="userSpaceOnUse" x1="1.6213" y1="6.1665" x2="38.211" y2="42.7561">
		<stop  offset="0" style="stop-color:#5E4421"/>
		<stop  offset="1" style="stop-color:#373100"/>
	</linearGradient>
	<rect x="1.6" y="6.2" class="st7" width="36.7" height="36.5"/>
	<g class="st2">
		
			<image style="overflow:visible;opacity:0.4;" width="49" height="49" xlink:href="9F2683384C797CF6.png"  transform="matrix(1 0 0 1 -4.4759 0.7741)">
		</image>
		<g>
			<g>
				<linearGradient id="SVGID_6_" gradientUnits="userSpaceOnUse" x1="-0.2494" y1="4.6721" x2="39.9994" y2="43.9947">
					<stop  offset="0" style="stop-color:#FDC45E"/>
					<stop  offset="1" style="stop-color:#FC9C0D"/>
				</linearGradient>
				<path class="st8" d="M0,4.4v39.8h39.8V4.4H0z M36.6,41.1H3.2V7.7h33.3V41.1z"/>
			</g>
		</g>
	</g>
	<g class="st2">
		<g class="st4">
			<path d="M14.5,29l-1.4,4.8H10L15.2,17h3.8l5.3,16.9h-3.2L19.7,29H14.5z M19.2,26.7l-1.3-4.2c-0.3-1-0.6-2.2-0.8-3.2h0
				c-0.2,1-0.5,2.2-0.8,3.2L15,26.7H19.2z"/>
		</g>
		<g>
			<linearGradient id="SVGID_7_" gradientUnits="userSpaceOnUse" x1="9.6881" y1="24.0626" x2="28.5229" y2="24.0626">
				<stop  offset="0" style="stop-color:#FDC45E"/>
				<stop  offset="1" style="stop-color:#FC9C0D"/>
			</linearGradient>
			<path class="st9" d="M14.5,27.7l-1.4,4.8H10l5.3-16.9h3.8l5.3,16.9h-3.2l-1.5-4.8H14.5z M19.2,25.4l-1.3-4.2
				c-0.3-1-0.6-2.2-0.8-3.2h0c-0.2,1-0.5,2.2-0.8,3.2L15,25.4H19.2z"/>
		</g>
	</g>
	<g class="st2">
		<g class="st4">
			<path d="M28.8,18.2c0,0.9-0.7,1.7-1.7,1.7c-1,0-1.7-0.7-1.7-1.7c0-1,0.7-1.7,1.7-1.7C28.1,16.6,28.7,17.3,28.8,18.2z M25.6,33.8
				V21.6h3v12.2H25.6z"/>
		</g>
		<g>
			<linearGradient id="SVGID_8_" gradientUnits="userSpaceOnUse" x1="9.6855" y1="23.8625" x2="28.5235" y2="23.8625">
				<stop  offset="0" style="stop-color:#FDC45E"/>
				<stop  offset="1" style="stop-color:#FC9C0D"/>
			</linearGradient>
			<path class="st10" d="M28.8,16.9c0,0.9-0.7,1.7-1.7,1.7c-1,0-1.7-0.7-1.7-1.7c0-1,0.7-1.7,1.7-1.7C28.1,15.2,28.7,16,28.8,16.9z
				 M25.6,32.5V20.3h3v12.2H25.6z"/>
		</g>
	</g>
</g>
<g class="st0">
	<linearGradient id="SVGID_9_" gradientUnits="userSpaceOnUse" x1="1.5833" y1="6.0452" x2="38.2501" y2="42.712">
		<stop  offset="0" style="stop-color:#58223A"/>
		<stop  offset="1" style="stop-color:#412734"/>
	</linearGradient>
	<rect x="1.6" y="6" class="st11" width="36.7" height="36.7"/>
	<g class="st2">
		
			<image style="overflow:visible;opacity:0.4;" width="49" height="49" xlink:href="9F2683384C797CF4.png"  transform="matrix(1 0 0 1 -4.4759 0.7741)">
		</image>
		<g>
			<g>
				<linearGradient id="SVGID_10_" gradientUnits="userSpaceOnUse" x1="-0.2911" y1="4.548" x2="40.0411" y2="43.952">
					<stop  offset="0" style="stop-color:#E955AB"/>
					<stop  offset="1" style="stop-color:#E33594"/>
				</linearGradient>
				<path class="st12" d="M0,4.2v40h39.8v-40H0z M36.6,41.1H3.2V7.5h33.3V41.1z"/>
			</g>
		</g>
	</g>
	<g class="st2">
		<g class="st4">
			<path d="M14.8,16.8v16.9h-3V16.8H14.8z"/>
		</g>
		<g>
			<g>
				<linearGradient id="SVGID_11_" gradientUnits="userSpaceOnUse" x1="11.7324" y1="23.9245" x2="27.9523" y2="23.9245">
					<stop  offset="0" style="stop-color:#E955AB"/>
					<stop  offset="1" style="stop-color:#E33594"/>
				</linearGradient>
				<path class="st13" d="M14.8,15.5v16.9h-3V15.5H14.8z"/>
			</g>
		</g>
	</g>
	<g class="st2">
		<g class="st4">
			<path d="M27.8,15.9v14.4c0,1.3,0,2.6,0.1,3.4h-2.5l-0.1-1.9h0c-0.6,1.4-2,2.2-3.5,2.2c-2.6,0-4.6-2.5-4.6-6.3
				c0-4.1,2.3-6.5,4.9-6.5c1.5,0,2.6,0.7,3.1,1.6h0v-6.9H27.8z M25.1,26.6c0-0.3,0-0.6-0.1-0.8c-0.2-1.2-1.1-2.2-2.4-2.2
				c-1.8,0-2.7,1.8-2.7,4c0,2.2,1,3.9,2.7,3.9c1.1,0,2.1-0.9,2.4-2.2c0.1-0.3,0.1-0.6,0.1-0.9V26.6z"/>
		</g>
		<g>
			<linearGradient id="SVGID_12_" gradientUnits="userSpaceOnUse" x1="11.7321" y1="23.6108" x2="27.9521" y2="23.6108">
				<stop  offset="0" style="stop-color:#E955AB"/>
				<stop  offset="1" style="stop-color:#E33594"/>
			</linearGradient>
			<path class="st14" d="M27.8,14.6v14.4c0,1.3,0,2.6,0.1,3.4h-2.5l-0.1-1.9h0c-0.6,1.4-2,2.2-3.5,2.2c-2.6,0-4.6-2.5-4.6-6.3
				c0-4.1,2.3-6.5,4.9-6.5c1.5,0,2.6,0.7,3.1,1.6h0v-6.9H27.8z M25.1,25.3c0-0.3,0-0.6-0.1-0.8c-0.2-1.2-1.1-2.2-2.4-2.2
				c-1.8,0-2.7,1.8-2.7,4c0,2.2,1,3.9,2.7,3.9c1.1,0,2.1-0.9,2.4-2.2c0.1-0.3,0.1-0.6,0.1-0.9V25.3z"/>
		</g>
	</g>
</g>
<g class="st0">
	<linearGradient id="SVGID_13_" gradientUnits="userSpaceOnUse" x1="1.5826" y1="6.0424" x2="38.2509" y2="42.7107">
		<stop  offset="0" style="stop-color:#52315C"/>
		<stop  offset="1" style="stop-color:#352941"/>
	</linearGradient>
	<rect x="1.6" y="6" class="st15" width="36.7" height="36.7"/>
	<g class="st2">
		
			<image style="overflow:visible;opacity:0.4;" width="49" height="49" xlink:href="9F2683384C797CFC.png"  transform="matrix(1 0 0 1 -4.4759 0.7741)">
		</image>
		<g>
			<g>
				<linearGradient id="SVGID_14_" gradientUnits="userSpaceOnUse" x1="-0.2921" y1="4.5449" x2="40.0421" y2="43.951">
					<stop  offset="0" style="stop-color:#DC87FC"/>
					<stop  offset="1" style="stop-color:#D13FFA"/>
				</linearGradient>
				<path class="st16" d="M0,4.2v40h39.8v-40H0z M36.6,41.1H3.2V7.5h33.3V41.1z"/>
			</g>
		</g>
	</g>
	<linearGradient id="SVGID_15_" gradientUnits="userSpaceOnUse" x1="10.4774" y1="23.9744" x2="30.603" y2="23.9744">
		<stop  offset="0" style="stop-color:#DC87FC"/>
		<stop  offset="1" style="stop-color:#D13FFA"/>
	</linearGradient>
	<path class="st17" d="M10.4,15.6c1.1-0.2,2.6-0.4,4.7-0.4c2.2,0,3.9,0.5,5,1.4c1,0.8,1.6,2.2,1.6,3.8c0,1.6-0.5,3-1.4,3.9
		c-1.2,1.3-3.1,1.8-5.3,1.8c-0.6,0-1.1,0-1.5-0.1v6.5h-3V15.6z M13.5,23.7c0.4,0.1,0.9,0.1,1.5,0.1c2.3,0,3.7-1.2,3.7-3.2
		c0-1.9-1.3-3-3.4-3c-0.8,0-1.4,0.1-1.8,0.2V23.7z"/>
	<linearGradient id="SVGID_16_" gradientUnits="userSpaceOnUse" x1="10.479" y1="26.2962" x2="30.6027" y2="26.2962">
		<stop  offset="0" style="stop-color:#DC87FC"/>
		<stop  offset="1" style="stop-color:#D13FFA"/>
	</linearGradient>
	<path class="st18" d="M23.9,24.2c0-1.7,0-2.9-0.1-4h2.7l0.1,2.4h0.1c0.6-1.8,2-2.7,3.3-2.7c0.3,0,0.5,0,0.7,0.1v3
		c-0.2-0.1-0.5-0.1-0.9-0.1c-1.5,0-2.5,1-2.7,2.4c0,0.3-0.1,0.6-0.1,1v6.5h-3.1V24.2z"/>
</g>
<g class="st0">
	<linearGradient id="SVGID_17_" gradientUnits="userSpaceOnUse" x1="1.5834" y1="6.0453" x2="38.2499" y2="42.7118">
		<stop  offset="0" style="stop-color:#375428"/>
		<stop  offset="1" style="stop-color:#2D342C"/>
	</linearGradient>
	<rect x="1.6" y="6" class="st19" width="36.7" height="36.7"/>
	<g class="st2">
		
			<image style="overflow:visible;opacity:0.4;" width="49" height="49" xlink:href="9F2683384C797CFD.png"  transform="matrix(1 0 0 1 -4.4759 0.7741)">
		</image>
		<g>
			<g>
				<linearGradient id="SVGID_18_" gradientUnits="userSpaceOnUse" x1="-0.2911" y1="4.548" x2="40.0411" y2="43.952">
					<stop  offset="0" style="stop-color:#8EF208"/>
					<stop  offset="1" style="stop-color:#83E605"/>
				</linearGradient>
				<path class="st20" d="M0,4.2v40h39.8v-40H0z M36.6,41.1H3.2V7.5h33.3V41.1z"/>
			</g>
		</g>
	</g>
	<g class="st2">
		<g class="st4">
			<path d="M5.9,16.9c1.2-0.2,2.7-0.4,4.3-0.4c2.8,0,4.7,0.7,6.1,2c1.4,1.3,2.3,3.3,2.3,6.2c0,3-0.9,5.3-2.3,6.7
				c-1.5,1.5-3.8,2.3-6.7,2.3c-1.6,0-2.8-0.1-3.7-0.2V16.9z M8.6,31.3c0.4,0.1,0.9,0.1,1.5,0.1c3.5,0,5.6-2.2,5.6-6.5
				c0-3.7-1.9-5.9-5.3-5.9c-0.9,0-1.5,0.1-1.9,0.2V31.3z"/>
		</g>
		<g>
			<linearGradient id="SVGID_19_" gradientUnits="userSpaceOnUse" x1="5.9601" y1="23.8668" x2="34.0119" y2="23.8668">
				<stop  offset="0" style="stop-color:#8EF208"/>
				<stop  offset="1" style="stop-color:#83E605"/>
			</linearGradient>
			<path class="st21" d="M5.9,15.6c1.2-0.2,2.7-0.4,4.3-0.4c2.8,0,4.7,0.7,6.1,2c1.4,1.3,2.3,3.3,2.3,6.2c0,3-0.9,5.3-2.3,6.7
				c-1.5,1.5-3.8,2.3-6.7,2.3c-1.6,0-2.8-0.1-3.7-0.2V15.6z M8.6,29.9C9,30,9.6,30,10.1,30c3.5,0,5.6-2.2,5.6-6.5
				c0-3.7-1.9-5.9-5.3-5.9c-0.9,0-1.5,0.1-1.9,0.2V29.9z"/>
		</g>
	</g>
	<g class="st2">
		<g class="st4">
			<path d="M21.6,21.4l1.1,5.5c0.2,1.3,0.5,2.6,0.7,4h0c0.2-1.3,0.6-2.7,0.9-3.9l1.3-5.6h2.1l1.3,5.4c0.3,1.4,0.6,2.8,0.8,4.1h0
				c0.2-1.3,0.4-2.7,0.7-4.1l1.2-5.4h2.6l-3.3,12.2h-2.4l-1.2-5c-0.3-1.3-0.6-2.4-0.8-3.9h0c-0.2,1.5-0.5,2.7-0.8,3.9l-1.3,5H22
				l-3.1-12.2H21.6z"/>
		</g>
		<g>
			<linearGradient id="SVGID_20_" gradientUnits="userSpaceOnUse" x1="5.96" y1="26.1893" x2="34.0124" y2="26.1893">
				<stop  offset="0" style="stop-color:#8EF208"/>
				<stop  offset="1" style="stop-color:#83E605"/>
			</linearGradient>
			<path class="st22" d="M21.6,20.1l1.1,5.5c0.2,1.3,0.5,2.6,0.7,4h0c0.2-1.3,0.6-2.7,0.9-3.9l1.3-5.6h2.1l1.3,5.4
				c0.3,1.4,0.6,2.8,0.8,4.1h0c0.2-1.3,0.4-2.7,0.7-4.1l1.2-5.4h2.6l-3.3,12.2h-2.4l-1.2-5c-0.3-1.3-0.6-2.4-0.8-3.9h0
				c-0.2,1.5-0.5,2.7-0.8,3.9l-1.3,5H22l-3.1-12.2H21.6z"/>
		</g>
	</g>
</g>
<g class="st0">
	<linearGradient id="SVGID_21_" gradientUnits="userSpaceOnUse" x1="1.5831" y1="6.0452" x2="38.2498" y2="42.7119">
		<stop  offset="0" style="stop-color:#2F2965"/>
		<stop  offset="1" style="stop-color:#2C2B53"/>
	</linearGradient>
	<rect x="1.6" y="6" class="st23" width="36.7" height="36.7"/>
	<g class="st2">
		
			<image style="overflow:visible;opacity:0.4;" width="49" height="49" xlink:href="9F2683384C797CFF.png"  transform="matrix(1 0 0 1 -4.4759 0.7741)">
		</image>
		<g>
			<g>
				<linearGradient id="SVGID_22_" gradientUnits="userSpaceOnUse" x1="-0.2911" y1="4.548" x2="40.0411" y2="43.952">
					<stop  offset="0" style="stop-color:#D199FE"/>
					<stop  offset="1" style="stop-color:#C179FF"/>
				</linearGradient>
				<path class="st24" d="M0,4.2v40h39.8v-40H0z M36.6,41.1H3.2V7.5h33.3V41.1z"/>
			</g>
		</g>
	</g>
	<g class="st2">
		<g class="st4">
			<path d="M10.8,28.9l-1.4,4.9H6.2l5.4-17.3h3.9l5.5,17.3h-3.3l-1.5-4.9H10.8z M15.6,26.6l-1.3-4.3c-0.3-1.1-0.6-2.2-0.8-3.2h0
				c-0.2,1-0.5,2.2-0.8,3.2l-1.3,4.3H15.6z"/>
		</g>
		<g>
			<linearGradient id="SVGID_23_" gradientUnits="userSpaceOnUse" x1="6.3202" y1="23.8691" x2="33.0142" y2="23.8691">
				<stop  offset="0" style="stop-color:#D199FE"/>
				<stop  offset="1" style="stop-color:#C179FF"/>
			</linearGradient>
			<path class="st25" d="M10.8,27.6l-1.4,4.9H6.2l5.4-17.3h3.9l5.5,17.3h-3.3l-1.5-4.9H10.8z M15.6,25.2L14.3,21
				c-0.3-1.1-0.6-2.2-0.8-3.2h0c-0.2,1-0.5,2.2-0.8,3.2l-1.3,4.3H15.6z"/>
		</g>
	</g>
	<g class="st2">
		<g class="st4">
			<path d="M25,28.5c0.1,2.3,1.8,3.2,3.7,3.2c1.4,0,2.4-0.2,3.4-0.6l0.4,2.2c-1,0.4-2.5,0.8-4.2,0.8c-3.9,0-6.3-2.5-6.3-6.3
				c0-3.5,2-6.7,5.9-6.7c4,0,5.2,3.3,5.2,6.1c0,0.6,0,1.1-0.1,1.3H25z M30.3,26.3c0-1.2-0.5-3.1-2.5-3.1c-1.9,0-2.7,1.8-2.8,3.1
				H30.3z"/>
		</g>
		<g>
			<linearGradient id="SVGID_24_" gradientUnits="userSpaceOnUse" x1="6.3205" y1="26.2678" x2="33.0139" y2="26.2678">
				<stop  offset="0" style="stop-color:#D199FE"/>
				<stop  offset="1" style="stop-color:#C179FF"/>
			</linearGradient>
			<path class="st26" d="M25,27.2c0.1,2.3,1.8,3.2,3.7,3.2c1.4,0,2.4-0.2,3.4-0.6l0.4,2.2c-1,0.4-2.5,0.8-4.2,0.8
				c-3.9,0-6.3-2.5-6.3-6.3c0-3.5,2-6.7,5.9-6.7c4,0,5.2,3.3,5.2,6.1c0,0.6,0,1.1-0.1,1.3H25z M30.3,24.9c0-1.2-0.5-3.1-2.5-3.1
				c-1.9,0-2.7,1.8-2.8,3.1H30.3z"/>
		</g>
	</g>
</g>
<path class="st27" d="M44.4,35.9c-0.8,0.9-1.7,1-2.6,1c-12.2,0-24.4,0-36.6,0c-0.5,0-0.9,0-1.4-0.1C3.5,36.6,3,36.6,3,36.1
	c-0.1-0.5,0.4-0.6,0.7-0.8c2.9-2.2,5.9-4.4,8.8-6.6c0.5-0.4,1.7-0.7,1-1.5c-0.6-0.7-1.3,0.2-1.8,0.6C8.8,29.9,6,32,3.2,34.1
	c-0.5,0.3-0.9,1-1.5,0.7c-0.5-0.3-0.6-1-0.6-1.6c0-5.9,0-11.8,0-17.7c0-1.4,0.6-1.4,1.5-0.6c2,1.5,4,3,6,4.5
	c3.9,2.9,7.8,5.7,11.7,8.5c2.4,1.7,4.6,1.7,7.1-0.1c5.6-4.2,11.2-8.4,16.8-12.6c0.4-0.3,0.9-1,1.5-0.7c0.6,0.3,0.4,1.1,0.4,1.6
	c0,5.4,0,10.9,0,16.3c0,0.5-0.1,0.9-0.1,1.4c-0.2,1.2-0.7,1.2-1.6,0.5c-2.8-2.1-5.6-4.2-8.3-6.2c-0.4-0.3-0.7-0.6-1.1-0.8
	c-0.4-0.3-0.8-0.6-1.2-0.1c-0.4,0.5,0.1,0.8,0.5,1.1c2,1.5,4,3,6,4.4C41.6,33.7,43,34.8,44.4,35.9z"/>
<path class="st27" d="M44,12.4c-1.9,1.4-3.6,2.7-5.4,4c-0.9-5.2-0.9-5.2-6.2-5.2c-6.2,0-12.3,0-18.5,0c-4.7,0-4.9,0.2-5.5,5.1
	c-1.7-1.2-3.4-2.4-4.9-3.6c-0.6-0.5,0-0.8,0.4-1C9.7,8.2,15.5,4.6,21.3,1.1c1.7-1,3.6-0.9,5.2,0.2C32.3,4.9,38,8.5,44,12.4z"/>
<path class="st28" d="M23.5,21.8c-1.3,0-2.6,0-3.9,0c-0.5,0-1,0-1-0.6c0-0.5,0.5-0.5,0.9-0.5c2.7,0,5.5,0,8.2,0c0.4,0,1.1-0.1,1,0.6
	c-0.1,0.5-0.6,0.5-1.1,0.5C26.3,21.8,24.9,21.8,23.5,21.8z"/>
<path class="st28" d="M23.7,15.6c-1.4,0-2.7,0-4.1,0c-0.4,0-0.9,0-0.9-0.5c0-0.5,0.4-0.6,0.8-0.6c2.9,0,5.8,0,8.6,0
	c0.4,0,0.7,0.2,0.7,0.5c0,0.5-0.4,0.6-0.8,0.6C26.5,15.6,25.1,15.6,23.7,15.6C23.7,15.6,23.7,15.6,23.7,15.6z"/>
<path class="st28" d="M23.6,18.7c-1.4,0-2.7,0-4.1,0c-0.4,0-0.9-0.1-0.9-0.6c0-0.5,0.4-0.6,0.8-0.6c2.8,0,5.6,0,8.4,0
	c0.4,0,0.9,0,0.9,0.5c0,0.4-0.4,0.6-0.9,0.6C26.5,18.7,25.1,18.7,23.6,18.7C23.6,18.7,23.6,18.7,23.6,18.7z"/>
</svg>
