<?xml version="1.0" encoding="utf-8"?>
<!-- Generator: Adobe Illustrator 19.1.0, SVG Export Plug-In . SVG Version: 6.00 Build 0)  -->
<svg version="1.1" id="Layer_1" xmlns="http://www.w3.org/2000/svg" xmlns:xlink="http://www.w3.org/1999/xlink" x="0px" y="0px"
	 width="39.8px" height="40px" viewBox="0 0 39.8 40" style="enable-background:new 0 0 39.8 40;" xml:space="preserve">
<style type="text/css">
	.st0{opacity:0.95;fill:url(#SVGID_1_);}
	.st1{fill:url(#SVGID_2_);}
	.st2{opacity:0.1;}
	.st3{fill:url(#SVGID_3_);}
	.st4{fill:url(#SVGID_4_);}
</style>
<g>
	<linearGradient id="SVGID_1_" gradientUnits="userSpaceOnUse" x1="1.5834" y1="1.7953" x2="38.2499" y2="38.4618">
		<stop  offset="0" style="stop-color:#32297C"/>
		<stop  offset="1" style="stop-color:#282761"/>
	</linearGradient>
	<rect x="1.6" y="1.8" class="st0" width="36.7" height="36.7"/>
	<g>
		
			<image style="overflow:visible;opacity:0.4;" width="49" height="49" xlink:href="F645D15AD5C71CD3.png"  transform="matrix(1 0 0 1 -4.4759 -3.4759)">
		</image>
		<g>
			<g>
				<linearGradient id="SVGID_2_" gradientUnits="userSpaceOnUse" x1="-0.2911" y1="0.298" x2="40.0411" y2="39.702">
					<stop  offset="0" style="stop-color:#95C8FD"/>
					<stop  offset="1" style="stop-color:#73B4F4"/>
				</linearGradient>
				<path class="st1" d="M0,0v40h39.8V0H0z M36.6,36.8H3.2V3.3h33.3V36.8z"/>
			</g>
		</g>
	</g>
	<g>
		<g class="st2">
			<path d="M10.4,12.8c1.1-0.2,2.6-0.4,4.6-0.4c2.2,0,3.8,0.5,4.9,1.4c1,0.8,1.6,2.2,1.6,3.7c0,1.6-0.5,2.9-1.4,3.8
				c-1.2,1.2-3.1,1.8-5.2,1.8c-0.6,0-1.1,0-1.5-0.1v6.4h-3V12.8z M13.4,20.7c0.4,0.1,0.9,0.1,1.5,0.1c2.2,0,3.6-1.1,3.6-3.1
				c0-1.9-1.3-2.9-3.3-2.9c-0.8,0-1.4,0.1-1.7,0.2V20.7z"/>
		</g>
		<g>
			<linearGradient id="SVGID_3_" gradientUnits="userSpaceOnUse" x1="10.3432" y1="19.6207" x2="30.1351" y2="19.6207">
				<stop  offset="0" style="stop-color:#95C8FD"/>
				<stop  offset="1" style="stop-color:#73B4F4"/>
			</linearGradient>
			<path class="st3" d="M10.4,11.4c1.1-0.2,2.6-0.4,4.6-0.4c2.2,0,3.8,0.5,4.9,1.4c1,0.8,1.6,2.2,1.6,3.7c0,1.6-0.5,2.9-1.4,3.8
				c-1.2,1.2-3.1,1.8-5.2,1.8c-0.6,0-1.1,0-1.5-0.1v6.4h-3V11.4z M13.4,19.3c0.4,0.1,0.9,0.1,1.5,0.1c2.2,0,3.6-1.1,3.6-3.1
				c0-1.9-1.3-2.9-3.3-2.9c-0.8,0-1.4,0.1-1.7,0.2V19.3z"/>
		</g>
	</g>
	<g>
		<g class="st2">
			<path d="M22.4,26.6c0.7,0.4,2,0.9,3,0.9c1.3,0,1.9-0.6,1.9-1.4c0-0.8-0.5-1.3-1.9-1.8c-2.3-0.8-3.3-2.1-3.3-3.6
				c0-2.2,1.7-3.8,4.5-3.8c1.3,0,2.5,0.4,3.1,0.7l-0.6,2.2c-0.5-0.3-1.5-0.7-2.5-0.7c-1.1,0-1.7,0.5-1.7,1.3c0,0.8,0.6,1.2,2.1,1.7
				c2.1,0.8,3.1,1.9,3.2,3.7c0,2.2-1.7,3.8-4.8,3.8c-1.4,0-2.7-0.4-3.6-0.9L22.4,26.6z"/>
		</g>
		<g>
			<linearGradient id="SVGID_4_" gradientUnits="userSpaceOnUse" x1="10.3439" y1="22.0314" x2="30.1353" y2="22.0314">
				<stop  offset="0" style="stop-color:#95C8FD"/>
				<stop  offset="1" style="stop-color:#73B4F4"/>
			</linearGradient>
			<path class="st4" d="M22.4,25.3c0.7,0.4,2,0.9,3,0.9c1.3,0,1.9-0.6,1.9-1.4c0-0.8-0.5-1.3-1.9-1.8c-2.3-0.8-3.3-2.1-3.3-3.6
				c0-2.2,1.7-3.8,4.5-3.8c1.3,0,2.5,0.4,3.1,0.7l-0.6,2.2c-0.5-0.3-1.5-0.7-2.5-0.7c-1.1,0-1.7,0.5-1.7,1.3c0,0.8,0.6,1.2,2.1,1.7
				c2.1,0.8,3.1,1.9,3.2,3.7c0,2.2-1.7,3.8-4.8,3.8c-1.4,0-2.7-0.4-3.6-0.9L22.4,25.3z"/>
		</g>
	</g>
</g>
</svg>
