<?xml version="1.0" encoding="utf-8"?>
<!-- Generator: Adobe Illustrator 19.1.0, SVG Export Plug-In . SVG Version: 6.00 Build 0)  -->
<svg version="1.1" id="Layer_1" xmlns="http://www.w3.org/2000/svg" xmlns:xlink="http://www.w3.org/1999/xlink" x="0px" y="0px"
	 width="39.8px" height="40px" viewBox="0 0 39.8 40" style="enable-background:new 0 0 39.8 40;" xml:space="preserve">
<style type="text/css">
	.st0{display:none;}
	.st1{display:inline;opacity:0.95;fill:url(#SVGID_1_);}
	.st2{display:inline;}
	.st3{fill:url(#SVGID_2_);}
	.st4{opacity:0.1;}
	.st5{fill:url(#SVGID_3_);}
	.st6{fill:url(#SVGID_4_);}
	.st7{display:inline;opacity:0.95;fill:url(#SVGID_5_);}
	.st8{fill:url(#SVGID_6_);}
	.st9{fill:url(#SVGID_7_);}
	.st10{fill:url(#SVGID_8_);}
	.st11{display:inline;opacity:0.95;fill:url(#SVGID_9_);}
	.st12{fill:url(#SVGID_10_);}
	.st13{fill:url(#SVGID_11_);}
	.st14{fill:url(#SVGID_12_);}
	.st15{opacity:0.95;fill:url(#SVGID_13_);}
	.st16{fill:url(#SVGID_14_);}
	.st17{fill:url(#SVGID_15_);}
	.st18{fill:url(#SVGID_16_);}
</style>
<g class="st0">
	<linearGradient id="SVGID_1_" gradientUnits="userSpaceOnUse" x1="1.5834" y1="1.7953" x2="38.2499" y2="38.4618">
		<stop  offset="0" style="stop-color:#32297C"/>
		<stop  offset="1" style="stop-color:#282761"/>
	</linearGradient>
	<rect x="1.6" y="1.8" class="st1" width="36.7" height="36.7"/>
	<g class="st2">
		
			<image style="overflow:visible;opacity:0.4;" width="49" height="49" xlink:href="DDC361F6754E44F8.png"  transform="matrix(1 0 0 1 -4.4759 -3.4759)">
		</image>
		<g>
			<g>
				<linearGradient id="SVGID_2_" gradientUnits="userSpaceOnUse" x1="-0.2911" y1="0.298" x2="40.0411" y2="39.702">
					<stop  offset="0" style="stop-color:#95C8FD"/>
					<stop  offset="1" style="stop-color:#73B4F4"/>
				</linearGradient>
				<path class="st3" d="M0,0v40h39.8V0H0z M36.6,36.8H3.2V3.3h33.3V36.8z"/>
			</g>
		</g>
	</g>
	<g class="st2">
		<g class="st4">
			<path d="M10.4,12.8c1.1-0.2,2.6-0.4,4.6-0.4c2.2,0,3.8,0.5,4.9,1.4c1,0.8,1.6,2.2,1.6,3.7c0,1.6-0.5,2.9-1.4,3.8
				c-1.2,1.2-3.1,1.8-5.2,1.8c-0.6,0-1.1,0-1.5-0.1v6.4h-3V12.8z M13.4,20.7c0.4,0.1,0.9,0.1,1.5,0.1c2.2,0,3.6-1.1,3.6-3.1
				c0-1.9-1.3-2.9-3.3-2.9c-0.8,0-1.4,0.1-1.7,0.2V20.7z"/>
		</g>
		<g>
			<linearGradient id="SVGID_3_" gradientUnits="userSpaceOnUse" x1="10.3432" y1="19.6207" x2="30.1351" y2="19.6207">
				<stop  offset="0" style="stop-color:#95C8FD"/>
				<stop  offset="1" style="stop-color:#73B4F4"/>
			</linearGradient>
			<path class="st5" d="M10.4,11.4c1.1-0.2,2.6-0.4,4.6-0.4c2.2,0,3.8,0.5,4.9,1.4c1,0.8,1.6,2.2,1.6,3.7c0,1.6-0.5,2.9-1.4,3.8
				c-1.2,1.2-3.1,1.8-5.2,1.8c-0.6,0-1.1,0-1.5-0.1v6.4h-3V11.4z M13.4,19.3c0.4,0.1,0.9,0.1,1.5,0.1c2.2,0,3.6-1.1,3.6-3.1
				c0-1.9-1.3-2.9-3.3-2.9c-0.8,0-1.4,0.1-1.7,0.2V19.3z"/>
		</g>
	</g>
	<g class="st2">
		<g class="st4">
			<path d="M22.4,26.6c0.7,0.4,2,0.9,3,0.9c1.3,0,1.9-0.6,1.9-1.4c0-0.8-0.5-1.3-1.9-1.8c-2.3-0.8-3.3-2.1-3.3-3.6
				c0-2.2,1.7-3.8,4.5-3.8c1.3,0,2.5,0.4,3.1,0.7l-0.6,2.2c-0.5-0.3-1.5-0.7-2.5-0.7c-1.1,0-1.7,0.5-1.7,1.3c0,0.8,0.6,1.2,2.1,1.7
				c2.1,0.8,3.1,1.9,3.2,3.7c0,2.2-1.7,3.8-4.8,3.8c-1.4,0-2.7-0.4-3.6-0.9L22.4,26.6z"/>
		</g>
		<g>
			<linearGradient id="SVGID_4_" gradientUnits="userSpaceOnUse" x1="10.3439" y1="22.0314" x2="30.1353" y2="22.0314">
				<stop  offset="0" style="stop-color:#95C8FD"/>
				<stop  offset="1" style="stop-color:#73B4F4"/>
			</linearGradient>
			<path class="st6" d="M22.4,25.3c0.7,0.4,2,0.9,3,0.9c1.3,0,1.9-0.6,1.9-1.4c0-0.8-0.5-1.3-1.9-1.8c-2.3-0.8-3.3-2.1-3.3-3.6
				c0-2.2,1.7-3.8,4.5-3.8c1.3,0,2.5,0.4,3.1,0.7l-0.6,2.2c-0.5-0.3-1.5-0.7-2.5-0.7c-1.1,0-1.7,0.5-1.7,1.3c0,0.8,0.6,1.2,2.1,1.7
				c2.1,0.8,3.1,1.9,3.2,3.7c0,2.2-1.7,3.8-4.8,3.8c-1.4,0-2.7-0.4-3.6-0.9L22.4,25.3z"/>
		</g>
	</g>
</g>
<g class="st0">
	<linearGradient id="SVGID_5_" gradientUnits="userSpaceOnUse" x1="1.6213" y1="1.9165" x2="38.211" y2="38.5061">
		<stop  offset="0" style="stop-color:#5E4421"/>
		<stop  offset="1" style="stop-color:#373100"/>
	</linearGradient>
	<rect x="1.6" y="2" class="st7" width="36.7" height="36.5"/>
	<g class="st2">
		
			<image style="overflow:visible;opacity:0.4;" width="49" height="49" xlink:href="DDC361F6754E44F9.png"  transform="matrix(1 0 0 1 -4.4759 -3.4759)">
		</image>
		<g>
			<g>
				<linearGradient id="SVGID_6_" gradientUnits="userSpaceOnUse" x1="-0.2494" y1="0.4221" x2="39.9994" y2="39.7447">
					<stop  offset="0" style="stop-color:#FDC45E"/>
					<stop  offset="1" style="stop-color:#FC9C0D"/>
				</linearGradient>
				<path class="st8" d="M0,0.2V40h39.8V0.2H0z M36.6,36.8H3.2V3.4h33.3V36.8z"/>
			</g>
		</g>
	</g>
	<g class="st2">
		<g class="st4">
			<path d="M14.5,24.8l-1.4,4.8H10l5.3-16.9h3.8l5.3,16.9h-3.2l-1.5-4.8H14.5z M19.2,22.5l-1.3-4.2c-0.3-1-0.6-2.2-0.8-3.2h0
				c-0.2,1-0.5,2.2-0.8,3.2L15,22.5H19.2z"/>
		</g>
		<g>
			<linearGradient id="SVGID_7_" gradientUnits="userSpaceOnUse" x1="9.6881" y1="19.8126" x2="28.5229" y2="19.8126">
				<stop  offset="0" style="stop-color:#FDC45E"/>
				<stop  offset="1" style="stop-color:#FC9C0D"/>
			</linearGradient>
			<path class="st9" d="M14.5,23.5l-1.4,4.8H10l5.3-16.9h3.8l5.3,16.9h-3.2l-1.5-4.8H14.5z M19.2,21.1L17.9,17
				c-0.3-1-0.6-2.2-0.8-3.2h0c-0.2,1-0.5,2.2-0.8,3.2L15,21.1H19.2z"/>
		</g>
	</g>
	<g class="st2">
		<g class="st4">
			<path d="M28.8,14c0,0.9-0.7,1.7-1.7,1.7c-1,0-1.7-0.7-1.7-1.7c0-1,0.7-1.7,1.7-1.7C28.1,12.3,28.7,13,28.8,14z M25.6,29.6V17.4h3
				v12.2H25.6z"/>
		</g>
		<g>
			<linearGradient id="SVGID_8_" gradientUnits="userSpaceOnUse" x1="9.6855" y1="19.6125" x2="28.5235" y2="19.6125">
				<stop  offset="0" style="stop-color:#FDC45E"/>
				<stop  offset="1" style="stop-color:#FC9C0D"/>
			</linearGradient>
			<path class="st10" d="M28.8,12.7c0,0.9-0.7,1.7-1.7,1.7c-1,0-1.7-0.7-1.7-1.7c0-1,0.7-1.7,1.7-1.7C28.1,11,28.7,11.7,28.8,12.7z
				 M25.6,28.2V16.1h3v12.2H25.6z"/>
		</g>
	</g>
</g>
<g class="st0">
	<linearGradient id="SVGID_9_" gradientUnits="userSpaceOnUse" x1="1.5833" y1="1.7952" x2="38.2501" y2="38.462">
		<stop  offset="0" style="stop-color:#58223A"/>
		<stop  offset="1" style="stop-color:#412734"/>
	</linearGradient>
	<rect x="1.6" y="1.8" class="st11" width="36.7" height="36.7"/>
	<g class="st2">
		
			<image style="overflow:visible;opacity:0.4;" width="49" height="49" xlink:href="DDC361F6754E44FF.png"  transform="matrix(1 0 0 1 -4.4759 -3.4759)">
		</image>
		<g>
			<g>
				<linearGradient id="SVGID_10_" gradientUnits="userSpaceOnUse" x1="-0.2911" y1="0.298" x2="40.0411" y2="39.702">
					<stop  offset="0" style="stop-color:#E955AB"/>
					<stop  offset="1" style="stop-color:#E33594"/>
				</linearGradient>
				<path class="st12" d="M0,0v40h39.8V0H0z M36.6,36.8H3.2V3.3h33.3V36.8z"/>
			</g>
		</g>
	</g>
	<g class="st2">
		<g class="st4">
			<path d="M14.8,12.5v16.9h-3V12.5H14.8z"/>
		</g>
		<g>
			<g>
				<linearGradient id="SVGID_11_" gradientUnits="userSpaceOnUse" x1="11.7324" y1="19.6745" x2="27.9523" y2="19.6745">
					<stop  offset="0" style="stop-color:#E955AB"/>
					<stop  offset="1" style="stop-color:#E33594"/>
				</linearGradient>
				<path class="st13" d="M14.8,11.2v16.9h-3V11.2H14.8z"/>
			</g>
		</g>
	</g>
	<g class="st2">
		<g class="st4">
			<path d="M27.8,11.6V26c0,1.3,0,2.6,0.1,3.4h-2.5l-0.1-1.9h0c-0.6,1.4-2,2.2-3.5,2.2c-2.6,0-4.6-2.5-4.6-6.3
				c0-4.1,2.3-6.5,4.9-6.5c1.5,0,2.6,0.7,3.1,1.6h0v-6.9H27.8z M25.1,22.3c0-0.3,0-0.6-0.1-0.8c-0.2-1.2-1.1-2.2-2.4-2.2
				c-1.8,0-2.7,1.8-2.7,4c0,2.2,1,3.9,2.7,3.9c1.1,0,2.1-0.9,2.4-2.2c0.1-0.3,0.1-0.6,0.1-0.9V22.3z"/>
		</g>
		<g>
			<linearGradient id="SVGID_12_" gradientUnits="userSpaceOnUse" x1="11.7321" y1="19.3608" x2="27.9521" y2="19.3608">
				<stop  offset="0" style="stop-color:#E955AB"/>
				<stop  offset="1" style="stop-color:#E33594"/>
			</linearGradient>
			<path class="st14" d="M27.8,10.3v14.4c0,1.3,0,2.6,0.1,3.4h-2.5l-0.1-1.9h0c-0.6,1.4-2,2.2-3.5,2.2c-2.6,0-4.6-2.5-4.6-6.3
				c0-4.1,2.3-6.5,4.9-6.5c1.5,0,2.6,0.7,3.1,1.6h0v-6.9H27.8z M25.1,21c0-0.3,0-0.6-0.1-0.8C24.8,19,23.9,18,22.6,18
				c-1.8,0-2.7,1.8-2.7,4c0,2.2,1,3.9,2.7,3.9c1.1,0,2.1-0.9,2.4-2.2c0.1-0.3,0.1-0.6,0.1-0.9V21z"/>
		</g>
	</g>
</g>
<g>
	<linearGradient id="SVGID_13_" gradientUnits="userSpaceOnUse" x1="1.5826" y1="1.7924" x2="38.2509" y2="38.4607">
		<stop  offset="0" style="stop-color:#52315C"/>
		<stop  offset="1" style="stop-color:#352941"/>
	</linearGradient>
	<rect x="1.6" y="1.8" class="st15" width="36.7" height="36.7"/>
	<g>
		
			<image style="overflow:visible;opacity:0.4;" width="49" height="49" xlink:href="DDC361F6754E44FA.png"  transform="matrix(1 0 0 1 -4.4759 -3.4759)">
		</image>
		<g>
			<g>
				<linearGradient id="SVGID_14_" gradientUnits="userSpaceOnUse" x1="-0.2921" y1="0.2949" x2="40.0421" y2="39.701">
					<stop  offset="0" style="stop-color:#DC87FC"/>
					<stop  offset="1" style="stop-color:#D13FFA"/>
				</linearGradient>
				<path class="st16" d="M0,0v40h39.8V0H0z M36.6,36.8H3.2V3.3h33.3V36.8z"/>
			</g>
		</g>
	</g>
	<linearGradient id="SVGID_15_" gradientUnits="userSpaceOnUse" x1="10.4774" y1="19.7244" x2="30.603" y2="19.7244">
		<stop  offset="0" style="stop-color:#DC87FC"/>
		<stop  offset="1" style="stop-color:#D13FFA"/>
	</linearGradient>
	<path class="st17" d="M10.4,11.4c1.1-0.2,2.6-0.4,4.7-0.4c2.2,0,3.9,0.5,5,1.4c1,0.8,1.6,2.2,1.6,3.8c0,1.6-0.5,3-1.4,3.9
		C19,21.4,17.1,22,15,22c-0.6,0-1.1,0-1.5-0.1v6.5h-3V11.4z M13.5,19.4c0.4,0.1,0.9,0.1,1.5,0.1c2.3,0,3.7-1.2,3.7-3.2
		c0-1.9-1.3-3-3.4-3c-0.8,0-1.4,0.1-1.8,0.2V19.4z"/>
	<linearGradient id="SVGID_16_" gradientUnits="userSpaceOnUse" x1="10.479" y1="22.0462" x2="30.6027" y2="22.0462">
		<stop  offset="0" style="stop-color:#DC87FC"/>
		<stop  offset="1" style="stop-color:#D13FFA"/>
	</linearGradient>
	<path class="st18" d="M23.9,20c0-1.7,0-2.9-0.1-4h2.7l0.1,2.4h0.1c0.6-1.8,2-2.7,3.3-2.7c0.3,0,0.5,0,0.7,0.1v3
		c-0.2-0.1-0.5-0.1-0.9-0.1c-1.5,0-2.5,1-2.7,2.4c0,0.3-0.1,0.6-0.1,1v6.5h-3.1V20z"/>
</g>
</svg>
