<?xml version="1.0" encoding="utf-8"?>
<!-- Generator: Adobe Illustrator 19.1.0, SVG Export Plug-In . SVG Version: 6.00 Build 0)  -->
<svg version="1.1" id="Layer_1" xmlns="http://www.w3.org/2000/svg" xmlns:xlink="http://www.w3.org/1999/xlink" x="0px" y="0px"
	 width="335px" height="360px" viewBox="0 0 335 360" style="enable-background:new 0 0 335 360;" xml:space="preserve">
<style type="text/css">
	.st0{fill:#F78D1E;}
	.st1{fill:#414042;}
</style>
<path class="st0" d="M306.9,201.9c-5.5-33.6-38.9-65.2-83.3-53.9c-74.4,18.9-128.9,33-163.9,29.9c2.3,0.5,4.7,0.9,7.2,1.3
	c0.5,0.1,1,0.2,1.5,0.2c29.5,4.7,81.9-3.7,111.3-9c15.8-2.8,20.9-3.4,39.8-1.8c5.2,0.4,10.3,1.4,15.2,2.7
	c22.2,6.2,39.9,23.2,47.6,45c0.2,0.6,0.4,1.1,0.5,1.6c15,50.4-15.5,100.3-106.2,119.4C245.6,337.9,321.9,293.2,306.9,201.9z"/>
<g>
	<path d="M315.9,19.5l0.2,72.4c-1.3,19.2-10.1,14.9-20.4,13.3c0,0-34.4-10.3-47.3-14.2c-2.9-0.9-4.8-3.5-4.8-6.4l-0.1-17.3l0-9.6
		c0-4.3-3.5-7.8-7.8-7.8c-16.3,0-102,0-132.4,0c-5.9,0-10.7,4.8-10.7,10.7v45.4c0,4.9,4,8.9,8.9,8.9h46.4h114.4
		c53.8,4.7,62.2-0.2,65.5,58.3c0.6,10.3,1.2,81.4,1.4,118.9c0.1,31,19.8,64.9-42.2,64.9H40.2c-13.3,0-41.1,3.1-38.1-6.3
		c10.1-31.3,13-64.5,13-97.4l0-35.2c0-5.1-11.7-12.5,9.2-13.1c17.5-0.5,53.7,5.5,52.5,50.5c-3.2,122.1,255.3,107.2,229-53
		c-5.4-33.2-38.4-64.3-82.3-53.2C80.7,185.6,12.2,203.8,15.1,114.7V25.5c0-8.4-13.8-22.2,18.6-22.2l266.9,0.8
		C327.7,3.3,315.9,11,315.9,19.5z"/>
</g>
<ellipse transform="matrix(0.9876 0.1567 -0.1567 0.9876 42.0541 -21.4552)" class="st1" cx="157.1" cy="255.9" rx="36.9" ry="48.3"/>
<ellipse transform="matrix(0.9876 0.1567 -0.1567 0.9876 41.6298 -22.0598)" class="st0" cx="160.7" cy="252.9" rx="36.6" ry="47.7"/>
<g>
</g>
<g>
</g>
<g>
</g>
<g>
</g>
<g>
</g>
<g>
</g>
</svg>
