<?xml version="1.0" encoding="utf-8"?>
<!-- Generator: Adobe Illustrator 19.1.0, SVG Export Plug-In . SVG Version: 6.00 Build 0)  -->
<svg version="1.1" id="Layer_1" xmlns="http://www.w3.org/2000/svg" xmlns:xlink="http://www.w3.org/1999/xlink" x="0px" y="0px"
	 width="335px" height="360px" viewBox="0 0 335 360" style="enable-background:new 0 0 335 360;" xml:space="preserve">
<style type="text/css">
	.st0{fill:#F78D1E;}
	.st1{fill:#FFFFFF;}
	.st2{fill:#F1F2F2;}
</style>
<path class="st0" d="M313.2,205.5c0-53.8-84.6-91.1-129-79.8c-74.4,18.9-48.6,27.4-151.6,61.7c41,32.3,100.1-35,169.3-39.4
	c99-6.3,127.1,122.7,48.7,169.3C284.1,318.7,313.2,327.6,313.2,205.5z"/>
<g>
	<path class="st1" d="M315.9,19.5l0.2,72.4c-1.3,19.2-10.1,14.9-20.4,13.3c0,0-34.4-10.3-47.3-14.2c-2.9-0.9-4.8-3.5-4.8-6.4
		l-0.1-17.3l0-9.6c0-4.3-3.5-7.8-7.8-7.8c-16.3,0-102,0-132.4,0c-5.9,0-10.7,4.8-10.7,10.7v45.4c0,4.9,4,8.9,8.9,8.9h46.4h114.4
		c53.8,4.7,62.2-0.2,65.5,58.3c0.6,10.3,1.2,81.4,1.4,118.9c0.1,31,19.8,64.9-42.2,64.9H40.2c-13.3,0-41.1,3.1-38.1-6.3
		c10.1-31.3,13-64.5,13-97.4l0-35.2c0-5.1-11.7-12.5,9.2-13.1c17.5-0.5,53.7,5.5,52.5,50.5c-3.2,122.1,249.1,108.1,229-53
		c-6.7-53.4-71.5-94.8-179.2-37.9c-86,45.5-114.5,39.3-111.6-49.8V25.5c0-8.4-13.8-22.2,18.6-22.2l266.9,0.8
		C327.7,3.3,315.9,11,315.9,19.5z"/>
</g>
<ellipse transform="matrix(0.9876 0.1567 -0.1567 0.9876 42.0541 -21.4552)" class="st2" cx="157.1" cy="255.9" rx="36.9" ry="48.3"/>
<ellipse transform="matrix(0.9876 0.1567 -0.1567 0.9876 41.6298 -22.0598)" class="st0" cx="160.7" cy="252.9" rx="36.6" ry="47.7"/>
<g>
</g>
<g>
</g>
<g>
</g>
<g>
</g>
<g>
</g>
<g>
</g>
</svg>
