<?xml version="1.0" encoding="utf-8"?>
<!-- Generator: Adobe Illustrator 19.1.0, SVG Export Plug-In . SVG Version: 6.00 Build 0)  -->
<svg version="1.1" id="Layer_1" xmlns="http://www.w3.org/2000/svg" xmlns:xlink="http://www.w3.org/1999/xlink" x="0px" y="0px"
	 width="167px" height="351px" viewBox="-60 -31 167 351" style="enable-background:new -60 -31 167 351;" xml:space="preserve">
<style type="text/css">
	.st0{display:none;}
	.st1{display:inline;fill:#49515B;}
	.st2{display:inline;fill:#D1D3D4;}
	.st3{fill:#F78D1F;}
	.st4{fill:#FFD08B;}
</style>
<g id="Layer_2" class="st0">
	<polygon class="st1" points="-63.1,99.2 -114.5,146 -165.9,99.2 -202.9,136.2 -167.4,203.5 -200.3,236.4 -159.5,292.3 
		-139.1,292.3 -66.5,292.3 -28.8,236.4 -62.9,204.3 -26.1,136.2 	"/>
</g>
<g class="st0">
	<polygon class="st2" points="-200.3,236.4 -186.4,222.5 -63.1,99.2 -26.1,136.2 -163.3,273.4 	"/>
	
		<rect x="-212.8" y="160.1" transform="matrix(-0.7071 -0.7071 0.7071 -0.7071 -329.3748 236.1325)" class="st2" width="194" height="52.3"/>
</g>
<g>
	<rect x="-55.9" y="-25" width="158.7" height="42.2"/>
	<rect x="-55.6" y="27.4" width="158.7" height="42.2"/>
	<rect x="-55.6" y="80.8" width="158.7" height="42.2"/>
</g>
<g id="Layer_2_2_">
	<rect x="-60" y="153" class="st3" width="167" height="167"/>
	<g id="Layer_2_1_">
		<polygon class="st4" points="24.1,198.1 -8.2,166.3 -26.2,160.1 -26.2,160.1 -58,191.8 19.1,266.7 -24,309.8 -7.6,305.7 
			24.1,273.9 59.9,309.8 74.8,309.8 103.1,279.4 61.1,234.9 103.1,192 71.5,161.5 62.2,160 		"/>
	</g>
	<g>
		<polygon points="-55.8,278 -43.8,266 62.2,160 94,191.8 -24,309.8 		"/>
		<rect x="-66.5" y="212.4" transform="matrix(-0.7071 -0.7071 0.7071 -0.7071 -137.2097 413.0012)" width="166.8" height="45"/>
	</g>
</g>
</svg>
