<?xml version="1.0" encoding="utf-8"?>
<!-- Generator: Adobe Illustrator 19.1.0, SVG Export Plug-In . SVG Version: 6.00 Build 0)  -->
<svg version="1.1" id="Layer_1" xmlns="http://www.w3.org/2000/svg" xmlns:xlink="http://www.w3.org/1999/xlink" x="0px" y="0px"
	 width="167px" height="351px" viewBox="-60 -11 167 351" style="enable-background:new -60 -11 167 351;" xml:space="preserve">
<style type="text/css">
	.st0{display:none;}
	.st1{display:inline;fill:#49515B;}
	.st2{display:inline;fill:#D1D3D4;}
	.st3{fill:#F78D20;}
	.st4{fill:#49515B;}
	.st5{fill:#BCBCBC;}
</style>
<g id="Layer_2" class="st0">
	<polygon class="st1" points="-3.1,130.2 -54.5,177 -105.9,130.2 -142.9,167.2 -107.4,234.5 -140.3,267.4 -99.5,323.3 -79.1,323.3 
		-6.5,323.3 31.2,267.4 -2.9,235.3 33.9,167.2 	"/>
</g>
<g class="st0">
	<polygon class="st2" points="-140.3,267.4 -126.4,253.5 -3.1,130.2 33.9,167.2 -103.3,304.4 	"/>
	
		<rect x="-152.8" y="191.1" transform="matrix(0.7071 0.7071 -0.7071 0.7071 137.2909 103.1207)" class="st2" width="194" height="52.3"/>
</g>
<g>
	<rect x="-54.9" y="-8" class="st3" width="158.7" height="42.2"/>
	<rect x="-54.6" y="44.4" class="st3" width="158.7" height="42.2"/>
	<rect x="-54.6" y="97.8" class="st3" width="158.7" height="42.2"/>
</g>
<g id="Layer_2_2_">
	<g id="Layer_2_1_">
		<polygon class="st4" points="25.1,215.1 -7.2,183.3 -25.2,177.1 -25.2,177.1 -57,208.8 20.1,283.7 -23,326.8 -6.6,322.7 
			25.1,290.9 60.9,326.8 75.8,326.8 104.1,296.4 62.1,251.9 104.1,209 72.5,178.5 63.2,177 		"/>
	</g>
	<g>
		<polygon class="st5" points="-54.8,295 -42.8,283 63.2,177 95,208.8 -23,326.8 		"/>
		
			<rect x="-65.5" y="229.4" transform="matrix(0.7071 0.7071 -0.7071 0.7071 183.3919 61.1421)" class="st5" width="166.8" height="45"/>
	</g>
</g>
</svg>
