<?xml version="1.0" encoding="utf-8"?>
<!-- Generator: Adobe Illustrator 19.1.0, SVG Export Plug-In . SVG Version: 6.00 Build 0)  -->
<svg version="1.1" id="Layer_1" xmlns="http://www.w3.org/2000/svg" xmlns:xlink="http://www.w3.org/1999/xlink" x="0px" y="0px"
	 width="167px" height="351px" viewBox="48 -139 167 351" style="enable-background:new 48 -139 167 351;" xml:space="preserve">
<style type="text/css">
	.st0{display:none;}
	.st1{display:inline;fill:#49515B;}
	.st2{display:inline;fill:#D1D3D4;}
	.st3{fill:#FEA162;}
	.st4{fill:#444443;}
</style>
<g id="Layer_2" class="st0">
	<polygon class="st1" points="-15.1,-39.8 -66.5,7 -117.9,-39.8 -154.9,-2.8 -119.4,64.5 -152.3,97.4 -111.5,153.3 -91.1,153.3 
		-18.5,153.3 19.2,97.4 -14.9,65.3 21.9,-2.8 	"/>
</g>
<g class="st0">
	<polygon class="st2" points="-152.3,97.4 -138.4,83.5 -15.1,-39.8 21.9,-2.8 -115.3,134.4 	"/>
	
		<rect x="-164.8" y="21.2" transform="matrix(0.7071 0.7071 -0.7071 0.7071 13.6016 61.7974)" class="st2" width="194" height="52.3"/>
</g>
<g>
	<rect x="52.1" y="-136" class="st3" width="158.7" height="42.2"/>
	<rect x="52.4" y="-83.6" class="st3" width="158.7" height="42.2"/>
	<rect x="52.4" y="-30.2" class="st3" width="158.7" height="42.2"/>
</g>
<g id="Layer_2_2_">
	<rect x="48" y="42" class="st3" width="167" height="167"/>
	<g id="Layer_2_1_">
		<polygon class="st4" points="132.1,87.1 99.8,55.3 81.8,49.1 81.8,49.1 50,80.8 127.1,155.7 84,198.8 100.4,194.7 132.1,162.9 
			167.9,198.8 182.8,198.8 211.1,168.4 169.1,123.9 211.1,81 179.5,50.5 170.2,49 		"/>
	</g>
	<g>
		<polygon points="52.2,167 64.2,155 170.2,49 202,80.8 84,198.8 		"/>
		<rect x="41.5" y="101.5" transform="matrix(0.7071 0.7071 -0.7071 0.7071 124.2418 -52.0395)" width="166.8" height="45"/>
	</g>
</g>
</svg>
