<?xml version="1.0" encoding="utf-8"?>
<!-- Generator: Adobe Illustrator 19.1.0, SVG Export Plug-In . SVG Version: 6.00 Build 0)  -->
<svg version="1.1" xmlns="http://www.w3.org/2000/svg" xmlns:xlink="http://www.w3.org/1999/xlink" x="0px" y="0px" width="204px"
	 height="421px" viewBox="-41 -66 204 421" style="enable-background:new -41 -66 204 421;" xml:space="preserve">
<style type="text/css">
	.st0{display:none;}
	.st1{display:inline;fill:#49515B;}
	.st2{display:inline;fill:#D1D3D4;}
	.st3{fill:#F78D20;}
	.st4{fill:#49515B;}
	.st5{fill:#BCBCBC;}
</style>
<g id="Layer_1">
	<g id="Layer_2" class="st0">
		<polygon class="st1" points="111.9,161.9 60.5,208.7 9.1,161.9 -27.9,198.9 7.6,266.2 -25.3,299.1 15.5,355 35.9,355 108.5,355 
			146.2,299.1 112.1,267 148.9,198.9 		"/>
	</g>
	<g class="st0">
		<polygon class="st2" points="-25.3,299.1 -11.4,285.2 111.9,161.9 148.9,198.9 11.7,336.1 		"/>
		
			<rect x="-37.8" y="222.9" transform="matrix(0.7071 0.7071 -0.7071 0.7071 193.4138 31.0596)" class="st2" width="194" height="52.3"/>
	</g>
	<g>
		<rect x="-36.2" y="-63.1" class="st3" width="194" height="52.3"/>
		<rect x="-35.8" y="1.8" class="st3" width="194" height="52.3"/>
		<rect x="-35.8" y="68.1" class="st3" width="194" height="52.3"/>
	</g>
</g>
<g id="Layer_2_2_">
	<g id="Layer_2_1_">
		<polygon class="st4" points="91.4,182.4 9.1,161.9 9.1,161.9 -27.9,198.9 61.8,286 11.7,336.1 86.5,313.2 109.3,336.1 163,321 
			163,170.3 111.9,161.9 		"/>
	</g>
	<g>
		<polygon class="st5" points="-25.3,299.1 -11.4,285.2 111.9,161.9 148.9,198.9 11.7,336.1 		"/>
		
			<rect x="-37.8" y="222.9" transform="matrix(0.7071 0.7071 -0.7071 0.7071 193.4138 31.0596)" class="st5" width="194" height="52.3"/>
	</g>
</g>
</svg>
