<svg viewBox="0 0 200 200" xmlns="http://www.w3.org/2000/svg" xmlns:xlink="http://www.w3.org/1999/xlink"><clipPath id="a"><path d="m26.8 27.54h144.62v144.92h-144.62z"/></clipPath><g fill="#ffdb57"><path d="m137.91 138.65h-4.83v9.66h-43.47v4.83h43.47v7.25a7.24 7.24 0 0 1 -7.24 7.24h-53.14a7.26 7.26 0 0 1 -6.28-3.63l-4.19 2.41a12.14 12.14 0 0 0 10.47 6h53.14a12.08 12.08 0 0 0 12.07-12.07zm0 0"/><g clip-path="url(#a)"><path d="m96.85 157.97h4.83v4.83h-4.83z"/><path d="m111.34 92.75v-4.83h-7.34a31.42 31.42 0 0 0 -28.89-28.86v-7.37h-4.83v7.37a32.78 32.78 0 0 0 -4.83.75v-13h38.65v-4.81h-38.65v-2.39a7.25 7.25 0 0 1 7.25-7.24h53.14a7.25 7.25 0 0 1 4.79 1.81l3.19-3.62a12 12 0 0 0 -8-3h-53.12a12.09 12.09 0 0 0 -12.08 12.05v21.74a31.45 31.45 0 0 0 -19.2 26.57h-7.37v4.83h7.38a31.25 31.25 0 0 0 28.85 28.88v7.37h4.83v-7.35a31.26 31.26 0 0 0 28.89-28.9zm-41.06 19.33v4.72a26.54 26.54 0 0 1 -9.66-2.8v-4.35a12.08 12.08 0 1 1 24.15 0v4.35a26.34 26.34 0 0 1 -9.66 2.79v-4.72zm-4.83-26.57a7.25 7.25 0 1 1 7.25 7.24 7.26 7.26 0 0 1 -7.25-7.24zm25 24.64c-.26.24-.54.43-.8.65v-1.14a16.91 16.91 0 0 0 -9.13-15 12.08 12.08 0 1 0 -15.56 0 16.89 16.89 0 0 0 -9.13 15v1.15c-.27-.22-.55-.42-.8-.65a26.56 26.56 0 0 1 -8.73-17.41h4.7v-4.83h-4.75a26.6 26.6 0 0 1 24-24v4.68h4.83v-4.71a26.6 26.6 0 0 1 24 24h-4.7v4.83h4.7a26.65 26.65 0 0 1 -8.73 17.41zm0 0"/></g><path d="m164.48 71a2.42 2.42 0 0 0 2.42-2.42v-29a2.41 2.41 0 0 0 -2.42-2.41h-53.14a2.41 2.41 0 0 0 -2.41 2.41v29a2.42 2.42 0 0 0 2.41 2.42zm-50.72-29h48.31v24.18h-48.31zm0 0"/><path d="m118.59 46.86h9.66v4.83h-9.66z"/><path d="m133.08 46.86h24.15v4.83h-24.15z"/><g clip-path="url(#a)"><path d="m118.59 56.52h38.65v4.83h-38.65z"/><path d="m164.06 75.85a7.67 7.67 0 0 0 -5.06 1.93l-21.09 18.57v-20.5h-4.83v24.15h.7l-13.78 12.13a16.9 16.9 0 0 0 -15.9 16.87v4.27a6.28 6.28 0 0 1 -3.5 5.65 2.42 2.42 0 0 0 1.08 4.58h16.91a16.9 16.9 0 0 0 16.86-15.94l34.36-38.95a7.67 7.67 0 0 0 -5.75-12.74zm-45.47 62.8h-11a11.14 11.14 0 0 0 1.39-5.4v-4.25a12.09 12.09 0 0 1 11.02-12l10.59 10.59a12.1 12.1 0 0 1 -12 11.11zm47.6-53.25-33.19 37.6-8.44-8.44 37.65-33.21a2.84 2.84 0 0 1 4 4zm0 0"/></g><path d="m29.22 160.39h53.14a2.42 2.42 0 0 0 2.41-2.39v-19.35a2.41 2.41 0 0 0 -2.41-2.42h-16.91v-12.08h-4.83v12.08h-31.4a2.42 2.42 0 0 0 -2.42 2.42v19.35a2.43 2.43 0 0 0 2.42 2.42zm2.42-19.33h48.3v14.49h-48.3zm0 0"/><path d="m36.47 145.89h12.08v4.83h-12.08z"/><path d="m53.37 145.89h21.74v4.83h-21.74z"/><path d="m29.22 61.35h24.15a2.41 2.41 0 0 0 2.42-2.41v-19.33a2.41 2.41 0 0 0 -2.42-2.41h-24.15a2.42 2.42 0 0 0 -2.42 2.41v19.33a2.42 2.42 0 0 0 2.42 2.41zm2.42-19.35h19.36v14.52h-19.36zm0 0"/><path d="m36.47 46.86h9.66v4.83h-9.66z"/></g></svg>