<svg id="Layer_1" data-name="Layer 1" xmlns="http://www.w3.org/2000/svg" viewBox="0 0 200 200"><defs><style>.cls-1{fill:#ffdb57;}</style></defs><title>Artboard 1 copy 2skills-icons</title><path class="cls-1" d="M166.47,79.93a3.38,3.38,0,0,0-3.33-.08L141.32,91.6V81.53a3.37,3.37,0,0,0-3.38-3.37h-5.49A30.25,30.25,0,1,0,84,47.56a22.8,22.8,0,1,0-33.75,30.6H47.18a3.37,3.37,0,0,0-3.38,3.37V96.86H35.26a3.37,3.37,0,0,0-3.38,3.37V113.5a3.38,3.38,0,0,0,3.38,3.38H43.8V132.2a3.38,3.38,0,0,0,3.38,3.38H87L68.7,170.67a3.38,3.38,0,0,0,6,3.12L92.56,139.5l17.87,34.29a3.39,3.39,0,0,0,3,1.81,3.37,3.37,0,0,0,3-4.93L98.13,135.58h39.81a3.38,3.38,0,0,0,3.38-3.38V122.13l21.82,11.75a3.36,3.36,0,0,0,1.6.4,3.43,3.43,0,0,0,1.73-.47,3.38,3.38,0,0,0,1.65-2.9V82.83A3.38,3.38,0,0,0,166.47,79.93Zm-53-48.78a23.51,23.51,0,1,1-23.51,23.5A23.52,23.52,0,0,1,113.43,31.15Zm-19,47H82.62a22.8,22.8,0,0,0,5-7.68A30.6,30.6,0,0,0,94.4,78.16Zm-44-16.07A16.07,16.07,0,1,1,66.44,78.16,16.08,16.08,0,0,1,50.38,62.09Zm-11.75,48v-6.52H43.8v6.52Zm95.94,18.69h-84V84.91h84v43.91Zm26.8-3.56-20.05-10.79V99.27l20.05-10.79Z"/><path class="cls-1" d="M66.44,51.84A10.26,10.26,0,1,0,76.69,62.09,10.26,10.26,0,0,0,66.44,51.84Zm0,14.43a4.18,4.18,0,1,1,4.18-4.18A4.18,4.18,0,0,1,66.44,66.27Z"/><path class="cls-1" d="M113.43,69.38A14.73,14.73,0,1,0,98.7,54.65,14.74,14.74,0,0,0,113.43,69.38Zm0-22.7a8,8,0,1,1-8,8A8,8,0,0,1,113.43,46.68Z"/><path class="cls-1" d="M102.54,94.72H65.84a3.21,3.21,0,0,0-3.21,3.21V115.8A3.21,3.21,0,0,0,65.84,119h36.7a3.21,3.21,0,0,0,3.2-3.21V97.93A3.21,3.21,0,0,0,102.54,94.72ZM99.33,112.6H69.05V101.14H99.33Z"/><circle class="cls-1" cx="120.24" cy="101.31" r="3.38"/><circle class="cls-1" cx="120.24" cy="112.43" r="3.38"/></svg>